<svg width="1061" height="663" viewBox="0 0 1061 663" fill="none" xmlns="http://www.w3.org/2000/svg">
<path d="M420.181 602.987C420.823 548.926 442.755 497.296 481.223 459.294C519.692 421.291 571.595 399.979 625.677 399.979C679.76 399.979 731.662 421.291 770.131 459.294C808.599 497.296 830.532 548.926 831.173 602.987H420.181Z" fill="#9677D9"/>
<path d="M261.121 435.14C232.735 441.514 207.654 444.701 185.876 444.701C150.174 444.701 123.055 436.179 103.781 419.107C56.3332 377.077 64.8862 292.004 73.9308 201.92L74.7548 193.471C75.0728 191.262 76.2313 189.26 77.9887 187.884C79.7461 186.507 81.9666 185.861 84.1884 186.081C86.4102 186.301 88.4619 187.369 89.9155 189.063C91.369 190.757 92.1121 192.946 91.991 195.175L91.1098 203.74C82.5132 289.202 74.4221 370.172 115.224 406.281C126.147 415.958 140.378 422.328 158.149 425.419C193.489 436.093 237.427 427.383 267.869 419.512C268.36 421.736 267.71 429.405 266.496 431.326C265.277 433.255 263.345 434.626 261.121 435.14V435.14Z" stroke="#3C096C" stroke-width="1.56" stroke-miterlimit="10"/>
<path d="M195.094 589.136C228.122 589.555 256.541 595.636 268.432 603.912L121.422 602.019C133.515 594.061 162.065 588.717 195.094 589.136Z" stroke="#3C096C" stroke-width="1.56" stroke-miterlimit="10"/>
<path d="M195.094 589.136L189.011 445.668" stroke="#3C096C" stroke-width="1.56" stroke-miterlimit="10"/>
<path d="M35.4269 603.767H1035.22" stroke="#3C096C" stroke-width="1.56" stroke-miterlimit="10"/>
<path d="M378.96 298.952L375.811 603.955" stroke="#3C096C" stroke-width="1.16" stroke-miterlimit="10"/>
<path d="M377.14 253.137C377.14 253.137 409.865 269.154 407.698 269.804C404.635 270.917 393.495 266.266 393.495 266.266C393.495 266.266 388.597 270.96 386.069 270.353C382.894 269.617 379.823 268.492 376.924 267.002" stroke="#3C096C" stroke-width="1.56" stroke-miterlimit="10"/>
<path d="M366.969 263.319C366.969 263.319 396.501 276.68 394.333 277.33C391.27 278.442 380.131 273.805 380.131 273.805C380.131 273.805 375.233 278.485 372.704 277.878C369.529 277.142 366.458 276.017 363.559 274.527" stroke="#3C096C" stroke-width="1.56" stroke-miterlimit="10"/>
<path d="M457.053 276.997H368.5V282.067H457.053V276.997Z" fill="#3C096C"/>
<path d="M451.461 277.142L481.297 209.763L484.779 210.918L456.388 276.997L451.461 277.142Z" stroke="#3C096C" stroke-miterlimit="10"/>
<path d="M112.58 370.88L95.0831 227.889C94.7574 224.051 95.4343 220.194 97.0478 216.696C97.5102 215.685 98.1087 214.743 98.8256 213.894C100.884 211.574 103.423 209.731 106.266 208.492L146.519 183.36" stroke="#3C096C" stroke-width="1.16" stroke-miterlimit="10"/>
<path d="M143.008 123.622C136.839 141.835 149.915 146.11 149.915 146.11L150.622 175.445C150.663 177.239 150.159 179.002 149.176 180.503C148.193 182.003 146.778 183.171 145.117 183.851" stroke="#3C096C" stroke-width="1.16" stroke-miterlimit="10"/>
<path d="M159.421 163.082L179.041 171.156C180.567 171.784 182.26 171.879 183.847 171.426C185.433 170.972 186.82 169.997 187.783 168.657L194.631 159.124C197.616 154.981 199.433 150.112 199.89 145.027C199.89 145.027 202.303 128.562 203.3 116.14" stroke="#3C096C" stroke-width="1.16" stroke-miterlimit="10"/>
<path d="M189.734 166.967C189.647 171.141 190.832 173.077 193.591 176.211C196.351 179.345 200.295 182.277 204.456 182.682" stroke="#3C096C" stroke-width="1.16" stroke-miterlimit="10"/>
<path d="M146.519 183.375C176.701 211.626 201.552 186.177 204.947 182.335" stroke="#3C096C" stroke-width="1.16" stroke-miterlimit="10"/>
<path d="M186.208 125.312C193.967 124.099 196.466 126.525 196.466 126.525" stroke="#3C096C" stroke-width="0.58" stroke-miterlimit="10"/>
<path d="M203.964 182.667C174.129 211.106 149.061 184.516 149.061 184.516C170.531 197.789 192.724 184.516 195.05 178.031L203.964 182.667Z" fill="#3C096C"/>
<path d="M208.082 192.705C203.909 196.751 199.039 200.01 193.707 202.324C188.32 204.541 182.467 205.389 176.672 204.794C170.946 204.093 165.4 202.335 160.316 199.609L156.56 197.529L152.977 195.146C151.776 194.362 150.618 193.514 149.509 192.604L146.129 189.961L149.567 192.532C150.688 193.418 151.861 194.238 153.078 194.987L156.69 197.298L160.49 199.277C165.562 201.873 171.075 203.499 176.744 204.072C182.401 204.538 188.085 203.595 193.288 201.328C198.427 198.963 203.096 195.69 207.071 191.665L208.082 192.705Z" fill="#231F20"/>
<path d="M611.749 285.317L341.728 281.865L341.511 298.591L611.489 302.042" stroke="#3C096C" stroke-width="1.16" stroke-miterlimit="10"/>
<path d="M111.627 370.779C134.931 365.074 333.507 320.227 333.507 320.227C341.366 318.696 517.201 522.436 517.201 522.436L499.863 523.49L313.756 391.303C241.877 442.188 135.394 458.668 111.627 370.779Z" fill="#3C096C"/>
<path d="M357.751 662.264L354.717 650.521L378.932 650.839C387.687 650.94 396.27 653.727 404.346 657.685C404.774 657.894 405.12 658.242 405.326 658.671C405.533 659.101 405.589 659.587 405.486 660.052C405.382 660.517 405.125 660.934 404.756 661.236C404.387 661.538 403.927 661.706 403.45 661.715L357.751 662.264Z" stroke="#3C096C" stroke-miterlimit="10"/>
<path d="M501.943 534.222L498.909 522.479L523.11 522.783C531.88 522.898 540.448 525.671 548.539 529.629C548.975 529.834 549.328 530.181 549.54 530.614C549.753 531.047 549.812 531.538 549.708 532.009C549.603 532.479 549.342 532.9 548.967 533.203C548.592 533.505 548.125 533.671 547.643 533.673L501.943 534.222Z" stroke="#3C096C" stroke-miterlimit="10"/>
<path d="M278.806 392.473L354.644 650.333L375.883 651.777L333.81 320.501L111.626 370.779L278.806 392.473Z" fill="#3C096C"/>
<path d="M203.964 182.667L225.232 187C229.535 187.896 233.456 190.098 236.458 193.307C239.461 196.515 241.399 200.573 242.006 204.924L251.065 273.286" stroke="#3C096C" stroke-width="1.16" stroke-miterlimit="10"/>
<path d="M139.93 228.424L169.275 285.013L349.082 260.33L351.422 278.153L151.142 324.675C147.196 325.6 143.052 325.158 139.391 323.421C135.729 321.683 132.766 318.755 130.987 315.114L97.5248 247.764" stroke="#3C096C" stroke-width="1.16" stroke-miterlimit="10"/>
<path d="M247.757 252.01L376.721 252.862L377.732 268.086" stroke="#3C096C" stroke-width="1.16" stroke-miterlimit="10"/>
<path d="M349.299 260.676C349.804 260.575 366.911 262.698 366.911 262.698L364.021 275.25L351.134 277.301" stroke="#3C096C" stroke-width="1.16" stroke-miterlimit="10"/>
<path d="M252.958 300.338L256.744 338.686" stroke="#3C096C" stroke-width="1.16" stroke-miterlimit="10"/>
<path d="M100.01 254.235L128.82 328.922C130.372 332.962 133.419 336.25 137.329 338.108C141.239 339.965 145.714 340.25 149.827 338.902L253.261 301.985L252.091 301.234L149.727 325.282C146.324 326.08 142.751 325.707 139.586 324.223C136.421 322.74 133.85 320.232 132.287 317.107L100.01 254.235Z" fill="#3C096C"/>
<path d="M259.243 272.751L251.773 252.689L248.248 252.776L250.805 274.195L259.243 272.751Z" fill="#3C096C"/>
<path d="M201.306 112.154C202.751 115.042 202.866 121.051 202.245 127.406C201.624 133.761 198.936 150.169 197.101 155.007C195.266 159.846 187.783 168.657 187.783 168.657C186.049 189.326 191.337 273.357 234.855 260.055C263.159 251.389 227.024 201.299 211.348 171.719C195.671 142.138 228.266 122.986 203.299 92.3807C199.716 88.0476 180.703 76.6372 160.374 85.1589C126.724 99.1691 133.92 162.851 149.177 180.573C149.177 180.573 150.419 177.597 150.26 160.352C150.101 143.106 148.021 146.472 143.036 140.03C138.052 133.588 141.75 125.138 145.926 122.495C150.101 119.852 161.747 112.76 162.079 104.397C162.079 104.397 176.397 113.974 187.551 114.941C198.705 115.909 201.306 112.154 201.306 112.154Z" fill="#3C096C"/>
<path d="M145.493 121.455C146.331 124.171 147.906 130.54 148.672 133.718C148.672 133.764 148.69 133.808 148.723 133.841C148.755 133.873 148.799 133.891 148.845 133.891C148.891 133.891 148.935 133.873 148.967 133.841C149 133.808 149.018 133.764 149.018 133.718C148.903 129.76 149.162 120.719 153.786 116.241C159.782 110.464 146.129 114.248 146.129 114.248L145.493 121.455Z" fill="#3C096C"/>
<path d="M203.445 125.427C208.198 125.991 211.854 128.042 211.29 132.808C210.951 135.03 209.761 137.033 207.972 138.395C206.183 139.756 203.934 140.37 201.701 140.106C199.468 139.841 197.426 138.72 196.004 136.979C194.582 135.237 193.893 133.011 194.082 130.771C194.646 126.005 198.691 124.864 203.445 125.427Z" stroke="#3C096C" stroke-width="0.87" stroke-miterlimit="10"/>
<path d="M170.315 127.955L145.19 125.918L144.496 123.752L171.5 124.518" stroke="#3C096C" stroke-width="0.58" stroke-miterlimit="10"/>
<path d="M179.749 122.625C184.517 123.189 188.173 125.225 187.609 129.992C187.334 131.629 186.594 133.153 185.477 134.382C184.359 135.612 182.913 136.494 181.309 136.925C179.704 137.355 178.009 137.316 176.427 136.811C174.844 136.307 173.44 135.358 172.381 134.079C170.971 132.361 170.263 130.173 170.401 127.955C170.921 123.188 174.938 122.062 179.749 122.625Z" stroke="#3C096C" stroke-width="0.87" stroke-miterlimit="10"/>
<path d="M1060.51 76.377C793.493 326.336 136.52 -269.068 0.693237 163.356" stroke="#3C096C" stroke-miterlimit="10"/>
</svg>
