<svg width="1059" height="650" viewBox="0 0 1059 650" fill="none" xmlns="http://www.w3.org/2000/svg">
<g clip-path="url(#clip0_12:696)">
<path d="M667.6 604.545C667.258 563.787 650.829 524.816 621.89 496.116C592.951 467.416 553.847 451.312 513.092 451.312C472.337 451.312 433.232 467.416 404.293 496.116C375.354 524.816 358.925 563.787 358.583 604.545H667.6Z" fill="#9677D9"/>
<path d="M887.486 477.72C908.828 482.507 927.686 484.901 944.06 484.901C970.902 484.901 991.281 478.491 1005.78 465.65C1041.46 434.036 1035.03 370.047 1028.23 302.3L1027.6 295.933C1027.33 294.292 1026.45 292.812 1025.14 291.798C1023.82 290.783 1022.17 290.31 1020.51 290.475C1018.86 290.64 1017.33 291.431 1016.24 292.686C1015.15 293.941 1014.58 295.565 1014.65 297.226L1015.3 303.668C1021.76 367.95 1027.86 428.843 997.169 456.013C988.967 463.281 978.256 468.072 964.895 470.408C938.325 478.426 905.301 471.886 882.413 465.965C882.044 467.638 882.522 473.396 883.445 474.852C884.362 476.302 885.814 477.333 887.486 477.72V477.72Z" stroke="#3C096C" stroke-width="1.56" stroke-miterlimit="10"/>
<path d="M797.324 341.714C797.324 341.714 772.731 353.762 774.349 354.251C776.663 355.088 785.038 351.6 785.038 351.6C785.038 351.6 788.721 355.12 790.611 354.664C793.002 354.111 795.315 353.265 797.498 352.144" stroke="#3C096C" stroke-width="1.56" stroke-miterlimit="10"/>
<path d="M804.983 349.384C804.983 349.384 782.779 359.422 784.397 359.911C786.711 360.748 795.086 357.26 795.086 357.26C795.086 357.26 798.769 360.78 800.659 360.324C803.047 359.773 805.357 358.926 807.535 357.804" stroke="#3C096C" stroke-width="1.56" stroke-miterlimit="10"/>
<path d="M737.242 359.661H803.82V363.475H737.242V359.661Z" fill="#3C096C"/>
<path d="M741.446 359.77L719.025 309.09L716.396 309.959L737.741 359.661L741.446 359.77Z" stroke="#3C096C" stroke-miterlimit="10"/>
<path d="M996.234 430.277L1012.66 318.378C1012.91 315.49 1012.39 312.588 1011.17 309.959C1010.82 309.201 1010.38 308.492 1009.85 307.851C1008.29 306.109 1006.38 304.723 1004.24 303.788L970.728 289.285" stroke="#3C096C" stroke-width="1.16" stroke-miterlimit="10"/>
<path d="M964.33 242.081C959.985 241.777 957.812 229.381 951.718 226.784C945.624 224.188 935.533 238.854 928.026 238.735C920.52 238.615 918.728 223.406 918.728 223.406C965.319 199.918 973.965 222.189 974.747 224.742C975.529 227.295 980.277 241.886 969.316 250.338C969.316 250.316 968.697 242.396 964.33 242.081Z" fill="#3C096C"/>
<path d="M973.368 244.254C977.995 257.953 968.176 261.169 968.176 261.169L967.643 283.233C967.613 284.582 967.992 285.909 968.731 287.038C969.47 288.167 970.534 289.045 971.782 289.556" stroke="#3C096C" stroke-width="1.16" stroke-miterlimit="10"/>
<path d="M961.017 273.978L942.246 281.713L933.316 271.479L931.144 266.242L930.622 260.398C930.622 260.398 928.808 248.024 928.048 238.67" stroke="#3C096C" stroke-width="1.16" stroke-miterlimit="10"/>
<path d="M938.226 276.9C938.302 280.051 937.412 281.495 935.326 283.853C933.24 286.21 930.286 288.416 927.157 288.72" stroke="#3C096C" stroke-width="1.16" stroke-miterlimit="10"/>
<path d="M970.674 289.241C947.992 310.491 929.308 291.349 926.755 288.459" stroke="#3C096C" stroke-width="1.16" stroke-miterlimit="10"/>
<path d="M927.928 245.655C924.344 246.09 921.595 247.622 922.019 251.207C922.3 252.856 923.204 254.335 924.545 255.336C925.885 256.337 927.56 256.784 929.221 256.584C930.882 256.39 932.406 255.564 933.475 254.278C934.545 252.992 935.079 251.344 934.967 249.675C934.544 246.09 931.491 245.242 927.928 245.655Z" stroke="#3C096C" stroke-width="0.87" stroke-miterlimit="10"/>
<path d="M945.777 243.548C942.203 243.971 939.454 245.503 939.878 249.088C940.146 250.743 941.043 252.232 942.38 253.243C943.717 254.255 945.392 254.712 947.058 254.52C948.721 254.326 950.246 253.499 951.316 252.21C952.386 250.922 952.919 249.271 952.805 247.6C952.381 243.971 949.361 243.168 945.777 243.548Z" stroke="#3C096C" stroke-width="0.87" stroke-miterlimit="10"/>
<path d="M952.837 247.513L971.728 245.981L972.249 244.352L951.935 244.928" stroke="#3C096C" stroke-width="0.58" stroke-miterlimit="10"/>
<path d="M940.877 245.568C935.054 244.656 933.165 246.481 933.165 246.481" stroke="#3C096C" stroke-width="0.58" stroke-miterlimit="10"/>
<path d="M927.527 288.709C949.958 310.1 968.805 290.1 968.805 290.1C952.674 300.084 935.989 290.1 934.229 285.222L927.527 288.709Z" fill="#3C096C"/>
<path d="M924.442 296.26C927.594 299.311 931.275 301.762 935.304 303.495C939.349 305.167 943.748 305.806 948.101 305.353C952.407 304.828 956.577 303.506 960.398 301.452L963.233 299.888L965.916 298.096C966.823 297.511 967.693 296.873 968.523 296.183L971.065 294.195L968.48 296.129C967.64 296.798 966.762 297.419 965.851 297.987L963.124 299.714L960.278 301.202C956.464 303.153 952.32 304.377 948.058 304.809C943.805 305.165 939.53 304.456 935.62 302.745C931.754 300.964 928.24 298.502 925.246 295.477L924.442 296.26Z" fill="#3C096C"/>
<path d="M620.976 365.93L823.949 363.333L824.112 375.914L621.139 378.51" stroke="#3C096C" stroke-width="1.16" stroke-miterlimit="10"/>
<path d="M795.956 376.175L797.867 604.763" stroke="#3C096C" stroke-width="1.16" stroke-miterlimit="10"/>
<path d="M996.951 430.201C979.429 425.91 830.13 392.177 830.13 392.177C824.232 391.026 692.031 544.272 692.031 544.272L705.066 545.054L844.99 445.628C898.979 483.891 979.082 496.297 996.951 430.201Z" fill="#3C096C"/>
<path d="M937.13 593.54C912.297 593.866 890.93 598.429 881.989 604.654L992.509 603.242C983.416 597.245 961.984 593.225 937.13 593.54Z" stroke="#3C096C" stroke-width="1.56" stroke-miterlimit="10"/>
<path d="M937.13 593.54L941.692 485.629" stroke="#3C096C" stroke-width="1.56" stroke-miterlimit="10"/>
<path d="M811.902 649.479L814.183 640.635L795.988 640.874C789.394 640.961 782.952 643.047 776.869 646.024C776.55 646.186 776.294 646.449 776.141 646.773C775.988 647.097 775.948 647.462 776.027 647.811C776.106 648.161 776.298 648.474 776.575 648.701C776.851 648.928 777.196 649.057 777.554 649.066L811.902 649.479Z" stroke="#3C096C" stroke-miterlimit="10"/>
<path d="M703.512 553.137L705.794 544.305L687.587 544.533C680.993 544.62 674.552 546.706 668.48 549.693C668.158 549.851 667.898 550.112 667.743 550.435C667.588 550.758 667.545 551.124 667.623 551.474C667.701 551.824 667.894 552.137 668.171 552.364C668.449 552.591 668.795 552.718 669.153 552.724L703.512 553.137Z" stroke="#3C096C" stroke-miterlimit="10"/>
<path d="M871.257 446.519L814.248 640.472L798.269 641.559L829.902 392.384L996.951 430.201L871.257 446.519Z" fill="#3C096C"/>
<path d="M927.526 288.709L911.547 292.033C908.311 292.703 905.361 294.357 903.101 296.768C900.842 299.18 899.383 302.231 898.925 305.505L892.114 356.924" stroke="#3C096C" stroke-width="1.16" stroke-miterlimit="10"/>
<path d="M975.682 323.158L953.619 365.724L818.42 347.157L816.671 360.563L967.252 395.556C970.218 396.251 973.331 395.918 976.083 394.611C978.834 393.304 981.06 391.101 982.395 388.364L1011.26 329.199" stroke="#3C096C" stroke-width="1.16" stroke-miterlimit="10"/>
<path d="M894.601 340.867L797.639 341.519L796.879 352.958" stroke="#3C096C" stroke-width="1.16" stroke-miterlimit="10"/>
<path d="M1057.16 604.545H4.52212e-05" stroke="#3C096C" stroke-width="1.56" stroke-miterlimit="10"/>
<path d="M818.268 347.385C817.888 347.309 805.026 348.906 805.026 348.906L807.198 358.358L816.888 359.9" stroke="#3C096C" stroke-width="1.16" stroke-miterlimit="10"/>
<path d="M890.691 377.218L887.845 406.061" stroke="black" stroke-width="1.16" stroke-miterlimit="10"/>
<path d="M1007.98 336.597L984.078 398.717C982.904 401.753 980.612 404.224 977.672 405.62C974.731 407.017 971.368 407.233 968.273 406.224L890.517 378.445L891.397 377.88L968.36 395.969C970.917 396.57 973.602 396.29 975.98 395.174C978.358 394.058 980.289 392.171 981.461 389.82L1007.98 336.597Z" fill="#3C096C"/>
<path d="M885.965 356.467L891.581 341.377L894.232 341.443L892.32 357.554L885.965 356.467Z" fill="#3C096C"/>
<path d="M606.692 606.892V89.0083C606.692 65.5632 616.004 43.0783 632.581 26.5001C649.157 9.92191 671.64 0.608337 695.083 0.608337H791.274" stroke="#3C096C" stroke-miterlimit="10"/>
<path d="M885.226 26.4319H682.905L752.069 5.13846C775.065 -1.93763 799.691 -1.70216 822.548 5.81215L885.226 26.4319Z" fill="#3C096C"/>
<path d="M261.654 535.331C462.421 723.331 956.356 275.488 1058.48 600.754" stroke="#3C096C" stroke-miterlimit="10"/>
</g>
<defs>
<clipPath id="clip0_12:696">
<rect width="1059" height="650" fill="white" transform="matrix(-1 0 0 1 1059 0)"/>
</clipPath>
</defs>
</svg>
