<svg width="1064" height="594" viewBox="0 0 1064 594" fill="none" xmlns="http://www.w3.org/2000/svg">
<g clip-path="url(#clip0_12_323)">
<path d="M810.832 234.397C810.832 234.397 791.036 248.388 787.09 246.095C783.143 243.802 780.306 230.739 780.306 230.739C778.127 231.048 776.437 231.602 774.309 230.996C772.31 229.979 775.844 221.141 775.47 214.803C775.096 208.465 773.252 200.117 775.264 196.239" stroke="#3C096C" stroke-width="1.56" stroke-miterlimit="10"/>
<path d="M831.93 235.119C827.778 231.261 824.043 226.978 820.788 222.339" stroke="#3C096C" stroke-width="1.56" stroke-miterlimit="10"/>
<path d="M799.638 243.698C799.638 243.698 810.458 256.336 810.38 261.232" stroke="#3C096C" stroke-width="1.56" stroke-miterlimit="10"/>
<path d="M827.558 230.803L810.406 258.784L831.634 234.861L827.558 230.803Z" fill="#3C096C"/>
<path d="M826.501 227.261C827.623 224.285 839.178 185.547 827.648 177.379C816.119 169.212 795.665 166.97 780.796 173.296C765.926 179.621 766.391 191.705 775.264 196.24C784.136 200.774 801.25 194.835 803.107 197.811C803.937 199.314 804.504 200.948 804.783 202.642C804.849 203.006 804.995 203.351 805.212 203.651C805.43 203.951 805.712 204.198 806.038 204.373C806.364 204.549 806.725 204.649 807.095 204.666C807.465 204.683 807.834 204.617 808.175 204.471C809.533 203.823 811.078 203.677 812.534 204.059C817.009 205.18 814.262 223.808 817.615 226.037C820.968 228.265 826.501 227.261 826.501 227.261Z" fill="#3C096C"/>
<path d="M842.093 591.424C841.52 543.205 821.943 497.155 787.606 463.26C753.27 429.364 706.942 410.355 658.668 410.355C610.394 410.355 564.066 429.364 529.729 463.26C495.393 497.155 475.816 543.205 475.243 591.424H842.093Z" fill="#9677D9"/>
<path d="M801.366 270.481L802.656 281.779C802.684 282.037 802.782 282.282 802.939 282.488C803.095 282.698 803.304 282.863 803.546 282.965C803.79 283.067 804.056 283.106 804.319 283.08C804.58 283.05 804.829 282.952 805.041 282.797L805.725 282.269L805.403 277.966C805.124 274.309 805.846 270.646 807.491 267.367C809.135 264.088 811.641 261.317 814.739 259.351L840.016 243.299C840.939 242.74 841.932 242.306 842.97 242.011L837.244 235.685C836.82 235.232 836.306 234.872 835.735 234.629C835.157 234.384 834.531 234.269 833.904 234.294C833.28 234.308 832.667 234.458 832.108 234.734C831.548 235.01 831.057 235.405 830.667 235.892L801.366 270.481Z" stroke="#3C096C" stroke-width="1.56" stroke-miterlimit="10"/>
<path d="M842.931 241.921C841.893 242.216 840.9 242.65 839.978 243.209L814.701 259.261C811.602 261.227 809.097 263.998 807.452 267.277C805.808 270.556 805.086 274.219 805.364 277.876L805.738 282.179" stroke="#3C096C" stroke-width="1.56" stroke-miterlimit="10"/>
<path d="M815.41 367.319L821.471 404.679" stroke="black" stroke-width="1.56" stroke-miterlimit="10"/>
<path d="M805.738 282.256L812.87 337.033" stroke="#3C096C" stroke-width="1.56" stroke-miterlimit="10"/>
<path d="M705.585 474.128L748.839 583.694H773.497L748.788 457.162C754.591 460.911 763.928 464.582 775.367 467.558C802.539 474.579 841.538 477.581 873.082 468.073C899.185 460.189 920.077 443.738 924.913 413.967C925.545 410.102 926.009 406.237 926.332 402.373C908.006 415.101 774.503 396.189 730.307 410.914C721.048 413.967 688.588 429.413 705.585 474.128Z" fill="#3C096C"/>
<path d="M926.383 402.347C926.589 402.192 926.783 402.063 926.963 401.909" stroke="black" stroke-width="1.56" stroke-miterlimit="10"/>
<path d="M926.383 402.347C913.899 326.546 877.145 265.573 853.299 244.304C851.918 243.048 850.241 242.162 848.425 241.728C846.612 241.304 844.72 241.353 842.931 241.869" stroke="#3C096C" stroke-width="1.56" stroke-miterlimit="10"/>
<path d="M34.0345 592.995H817.628" stroke="#3C096C" stroke-width="1.56" stroke-miterlimit="10"/>
<path d="M950.887 592.995H1064.03" stroke="#3C096C" stroke-width="1.56" stroke-miterlimit="10"/>
<path d="M775.406 467.584C802.591 474.605 841.667 477.607 873.108 468.086" stroke="black" stroke-width="1.56" stroke-miterlimit="10"/>
<path d="M781.235 476.872C806.572 482.549 828.96 485.387 848.399 485.387C880.266 485.387 904.459 477.787 921.676 462.573C964.028 425.072 956.393 349.206 948.32 268.858L947.585 261.309C947.333 259.309 946.308 257.487 944.73 256.231C943.152 254.974 941.145 254.384 939.138 254.584C937.132 254.787 935.285 255.763 933.989 257.305C932.694 258.847 932.052 260.834 932.2 262.842L932.986 270.481C940.646 346.707 947.881 418.914 911.449 451.133C901.712 459.764 889.01 465.432 873.134 468.202C841.59 477.709 802.591 474.643 775.432 467.687C775.208 468.67 775.182 469.687 775.355 470.68C775.528 471.672 775.896 472.621 776.437 473.471C777.526 475.192 779.25 476.413 781.235 476.872V476.872Z" stroke="#3C096C" stroke-width="1.56" stroke-miterlimit="10"/>
<path d="M817.628 592.969H948.887C938.183 585.729 912.778 580.628 883.258 580.628C853.738 580.628 828.332 585.729 817.628 592.969Z" stroke="#3C096C" stroke-width="1.56" stroke-miterlimit="10"/>
<path d="M872.438 483.429L883.258 580.641" stroke="#3C096C" stroke-width="1.56" stroke-miterlimit="10"/>
<path d="M674.672 340.665C674.672 340.665 645.475 354.952 647.396 355.532C650.143 356.537 660.087 352.388 660.087 352.388C660.087 352.388 664.458 356.562 666.702 356.021C669.537 355.368 672.279 354.364 674.866 353.033" stroke="#3C096C" stroke-width="1.56" stroke-miterlimit="10"/>
<path d="M775.406 592.969L773.561 583.72H751.947C741.63 583.72 731.545 587.919 722.569 592.969H775.406Z" stroke="#3C096C" stroke-miterlimit="10"/>
<path d="M748.839 583.72H773.497L748.788 457.188C754.591 460.937 763.928 464.608 775.367 467.584C802.539 474.605 841.538 477.607 873.083 468.099" stroke="#3C096C" stroke-width="1.56" stroke-miterlimit="10"/>
<path d="M926.383 402.347C915.421 409.973 863.191 406.212 813.553 405.194" stroke="#3C096C" stroke-width="1.56" stroke-miterlimit="10"/>
<path d="M775.418 467.584C802.591 474.605 841.59 477.607 873.134 468.099C899.236 460.215 920.128 443.764 924.964 413.993C925.596 410.128 926.061 406.263 926.383 402.398" stroke="#3C096C" stroke-width="1.56" stroke-miterlimit="10"/>
<path d="M748.852 583.746H773.574L748.852 457.188" stroke="#3C096C" stroke-width="1.56" stroke-miterlimit="10"/>
<path d="M468.963 360.762H696.042V375.68H468.963" stroke="#3C096C" stroke-width="1.16" stroke-miterlimit="10"/>
<path d="M674.105 375.641V593.588" stroke="#3C096C" stroke-width="1.16" stroke-miterlimit="10"/>
<path d="M828.835 273.702L812.831 337.033L682.681 339.48L680.695 356.601L823.948 367.654C827.135 367.909 830.322 367.171 833.073 365.543C835.823 363.914 838.001 361.474 839.307 358.559L861.747 300.356" stroke="#3C096C" stroke-width="1.56" stroke-miterlimit="10"/>
<path d="M596.662 356.446H675.704V360.968H596.662V356.446Z" fill="#3C096C"/>
<path d="M601.653 356.575L575.035 296.478L571.914 297.509L597.255 356.446L601.653 356.575Z" stroke="#3C096C" stroke-miterlimit="10"/>
<path d="M680.45 355.248L675.601 355.055L674.788 339.686L682.681 339.493" stroke="#3C096C" stroke-width="1.56" stroke-miterlimit="10"/>
<path d="M817.474 377.87C817.474 377.87 840.377 379.055 843.782 371.094C853.416 348.588 862.533 301 862.533 301C862.533 301 843.705 351.062 839.32 358.559C834.935 366.057 828.268 367.886 821.845 367.577L815.397 367.294L817.474 377.87Z" fill="#3C096C"/>
<path d="M451.053 507.481H364.209L372.85 592.995H444.399L451.053 507.481Z" stroke="#3C096C" stroke-miterlimit="10"/>
<path d="M497.293 592.974C495.526 592.95 445.785 575.092 445.785 575.092L444.243 593.108L497.293 592.974Z" fill="#3C096C"/>
<path d="M446.14 402.205L409.733 432.969C409.733 432.969 410.288 492.589 410.223 496.595" stroke="#3C096C" stroke-miterlimit="10"/>
<path d="M418.916 425.2L409.153 360.131L353.853 327.474" stroke="#3C096C" stroke-miterlimit="10" stroke-linecap="round"/>
<path d="M386.391 346.694L432.315 259.029L479.464 233.29" stroke="#3C096C" stroke-miterlimit="10" stroke-linecap="round"/>
<path d="M428.188 402.682C429.478 404.254 432.844 403.596 432.844 403.596C432.844 403.596 434.262 400.415 433.024 398.856C432.793 398.479 432.484 398.155 432.118 397.907C431.752 397.658 431.337 397.49 430.901 397.414C430.465 397.338 430.018 397.355 429.589 397.465C429.16 397.575 428.759 397.774 428.414 398.051C428.068 398.327 427.785 398.673 427.584 399.067C427.383 399.461 427.268 399.893 427.246 400.335C427.225 400.776 427.298 401.217 427.46 401.629C427.622 402.04 427.871 402.412 428.188 402.721V402.682Z" fill="#3C096C"/>
<path d="M433.14 409.716C434.429 408.183 433.14 404.975 433.14 404.975C433.14 404.975 429.735 404.24 428.459 405.774C428.098 406.061 427.807 406.425 427.604 406.839C427.402 407.253 427.293 407.707 427.287 408.168C427.282 408.629 427.378 409.085 427.57 409.504C427.762 409.923 428.044 410.295 428.397 410.592C428.749 410.889 429.164 411.104 429.609 411.222C430.055 411.34 430.522 411.357 430.976 411.273C431.429 411.19 431.859 411.007 432.233 410.737C432.607 410.468 432.917 410.119 433.14 409.716Z" fill="#3C096C"/>
<path d="M438.441 405.503C436.622 406.315 433.875 404.215 433.875 404.215C433.875 404.215 434.081 400.749 435.9 399.925C436.277 399.679 436.704 399.517 437.15 399.45C437.596 399.383 438.051 399.414 438.484 399.539C438.917 399.664 439.318 399.881 439.66 400.175C440.001 400.469 440.275 400.834 440.463 401.243C440.651 401.653 440.748 402.098 440.747 402.549C440.747 402.999 440.649 403.444 440.461 403.853C440.272 404.263 439.998 404.627 439.656 404.92C439.314 405.214 438.913 405.43 438.479 405.555L438.441 405.503Z" fill="#3C096C"/>
<path d="M451.84 392.324C450.344 393.612 451.195 397.026 451.195 397.026C451.195 397.026 454.457 398.315 455.941 396.936C456.329 396.696 456.66 396.374 456.911 395.992C457.162 395.61 457.326 395.179 457.392 394.727C457.458 394.275 457.424 393.815 457.293 393.377C457.162 392.94 456.937 392.537 456.634 392.195C456.33 391.854 455.956 391.583 455.537 391.402C455.117 391.22 454.663 391.133 454.207 391.145C453.75 391.158 453.301 391.269 452.892 391.473C452.484 391.677 452.124 391.967 451.84 392.324Z" fill="#3C096C"/>
<path d="M445.095 397.632C446.707 398.817 449.841 397.297 449.841 397.297C449.841 397.297 450.383 393.844 448.771 392.659C448.453 392.335 448.069 392.084 447.645 391.924C447.221 391.763 446.767 391.695 446.314 391.727C445.861 391.758 445.421 391.887 445.023 392.106C444.625 392.324 444.28 392.626 444.011 392.99C443.741 393.355 443.554 393.774 443.462 394.218C443.371 394.661 443.377 395.12 443.48 395.561C443.583 396.003 443.781 396.416 444.06 396.774C444.339 397.131 444.692 397.424 445.095 397.632Z" fill="#3C096C"/>
<path d="M449.609 402.708C448.693 400.943 450.679 398.083 450.679 398.083C450.679 398.083 454.174 398.083 455.09 399.848C455.363 400.211 455.554 400.629 455.65 401.073C455.745 401.517 455.743 401.977 455.643 402.42C455.543 402.863 455.347 403.279 455.07 403.639C454.792 403.999 454.44 404.295 454.037 404.505C453.634 404.715 453.189 404.835 452.735 404.857C452.281 404.879 451.828 404.802 451.406 404.631C450.985 404.459 450.606 404.199 450.295 403.867C449.985 403.535 449.751 403.139 449.609 402.708Z" fill="#3C096C"/>
<path d="M439.253 423.77C438.105 422.147 434.649 422.585 434.649 422.585C434.649 422.585 433.037 425.677 434.185 427.313C434.382 427.722 434.666 428.083 435.016 428.371C435.367 428.66 435.776 428.869 436.216 428.983C436.655 429.098 437.114 429.116 437.561 429.036C438.008 428.956 438.433 428.78 438.805 428.52C439.177 428.259 439.488 427.922 439.717 427.529C439.945 427.137 440.085 426.7 440.128 426.248C440.171 425.797 440.114 425.341 439.963 424.913C439.812 424.485 439.57 424.095 439.253 423.77Z" fill="#3C096C"/>
<path d="M434.752 416.479C433.385 417.935 434.533 421.22 434.533 421.22C434.533 421.22 437.899 422.147 439.253 420.692C439.608 420.414 439.898 420.064 440.105 419.664C440.311 419.264 440.428 418.824 440.448 418.375C440.468 417.926 440.391 417.477 440.221 417.06C440.051 416.644 439.793 416.269 439.464 415.961C439.136 415.653 438.744 415.42 438.317 415.278C437.89 415.136 437.436 415.088 436.989 415.137C436.541 415.186 436.11 415.332 435.723 415.564C435.337 415.795 435.006 416.107 434.752 416.479Z" fill="#3C096C"/>
<path d="M429.168 420.369C431.038 419.661 433.656 421.954 433.656 421.954C433.656 421.954 433.243 425.419 431.386 426.128C430.996 426.347 430.562 426.48 430.116 426.517C429.67 426.554 429.221 426.495 428.799 426.343C428.378 426.191 427.995 425.951 427.675 425.638C427.354 425.325 427.106 424.947 426.945 424.53C426.784 424.112 426.715 423.665 426.742 423.218C426.77 422.772 426.893 422.336 427.104 421.942C427.315 421.547 427.609 421.203 427.965 420.931C428.321 420.66 428.731 420.468 429.168 420.369Z" fill="#3C096C"/>
<path d="M401.325 408.698C403.311 408.466 404.562 405.22 404.562 405.22C404.562 405.22 402.602 402.334 400.616 402.566C400.16 402.542 399.705 402.617 399.282 402.787C398.859 402.957 398.478 403.216 398.166 403.548C397.854 403.88 397.618 404.276 397.475 404.708C397.332 405.141 397.285 405.599 397.337 406.051C397.389 406.504 397.54 406.939 397.778 407.328C398.016 407.716 398.336 408.047 398.716 408.299C399.095 408.551 399.525 408.717 399.976 408.786C400.427 408.855 400.887 408.825 401.325 408.698Z" fill="#3C096C"/>
<path d="M409.927 408.221C409.295 406.328 405.852 405.773 405.852 405.773C405.852 405.773 403.427 408.286 404.059 410.179C404.132 410.627 404.301 411.053 404.556 411.429C404.81 411.805 405.143 412.121 405.531 412.356C405.92 412.59 406.355 412.737 406.806 412.787C407.257 412.837 407.714 412.789 408.145 412.645C408.576 412.502 408.97 412.266 409.3 411.955C409.631 411.644 409.89 411.265 410.059 410.845C410.229 410.424 410.305 409.971 410.282 409.518C410.259 409.065 410.138 408.623 409.927 408.221Z" fill="#3C096C"/>
<path d="M409.114 401.471C408.856 403.442 405.593 404.653 405.593 404.653C405.593 404.653 402.73 402.643 403.014 400.672C403.008 400.225 403.098 399.782 403.279 399.373C403.459 398.964 403.725 398.598 404.06 398.301C404.394 398.004 404.788 397.782 405.216 397.65C405.644 397.519 406.095 397.48 406.539 397.538C406.983 397.596 407.409 397.749 407.788 397.986C408.168 398.222 408.492 398.538 408.739 398.911C408.985 399.284 409.149 399.706 409.218 400.147C409.287 400.589 409.261 401.041 409.14 401.471H409.114Z" fill="#3C096C"/>
<path d="M398.552 373.129C400.538 372.897 401.789 369.651 401.789 369.651C401.789 369.651 399.829 366.778 397.843 366.997C397.387 366.973 396.933 367.049 396.51 367.218C396.087 367.388 395.706 367.648 395.393 367.979C395.081 368.311 394.846 368.707 394.702 369.14C394.559 369.572 394.512 370.03 394.564 370.482C394.616 370.935 394.767 371.37 395.005 371.759C395.243 372.147 395.563 372.479 395.943 372.731C396.323 372.983 396.753 373.149 397.204 373.218C397.654 373.287 398.114 373.256 398.552 373.129Z" fill="#3C096C"/>
<path d="M407.128 372.653C406.483 370.759 403.04 370.205 403.04 370.205C403.04 370.205 400.628 372.781 401.26 374.611C401.333 375.058 401.503 375.485 401.757 375.861C402.011 376.236 402.344 376.552 402.733 376.787C403.122 377.021 403.556 377.169 404.008 377.219C404.459 377.269 404.916 377.22 405.346 377.077C405.777 376.933 406.171 376.697 406.502 376.386C406.832 376.076 407.091 375.697 407.261 375.276C407.43 374.855 407.506 374.403 407.483 373.95C407.46 373.497 407.339 373.054 407.128 372.653Z" fill="#3C096C"/>
<path d="M406.341 365.915C406.083 367.886 402.808 369.097 402.808 369.097C402.808 369.097 399.958 367.087 400.229 365.116C400.222 364.669 400.313 364.226 400.493 363.817C400.673 363.408 400.94 363.042 401.274 362.745C401.608 362.448 402.003 362.226 402.431 362.094C402.858 361.963 403.309 361.925 403.753 361.982C404.197 362.04 404.623 362.193 405.003 362.43C405.382 362.667 405.706 362.982 405.953 363.355C406.2 363.728 406.363 364.15 406.432 364.592C406.502 365.033 406.475 365.485 406.354 365.915H406.341Z" fill="#3C096C"/>
<path d="M396.643 434.875C398.5 435.61 401.144 433.329 401.144 433.329C401.144 433.329 400.77 429.864 398.913 429.143C398.525 428.917 398.092 428.777 397.645 428.734C397.198 428.691 396.746 428.744 396.322 428.891C395.897 429.038 395.509 429.275 395.185 429.586C394.86 429.896 394.607 430.273 394.442 430.691C394.276 431.108 394.203 431.556 394.227 432.004C394.251 432.453 394.372 432.89 394.581 433.288C394.79 433.685 395.083 434.033 395.439 434.307C395.795 434.581 396.205 434.775 396.643 434.875Z" fill="#3C096C"/>
<path d="M404.433 438.482C404.768 436.524 401.995 434.411 401.995 434.411C401.995 434.411 398.668 435.494 398.346 437.452C398.206 437.878 398.161 438.329 398.212 438.774C398.263 439.219 398.41 439.648 398.642 440.032C398.874 440.416 399.186 440.744 399.557 440.997C399.928 441.249 400.348 441.418 400.791 441.493C401.233 441.568 401.687 441.547 402.12 441.431C402.554 441.315 402.957 441.107 403.302 440.821C403.648 440.535 403.928 440.178 404.123 439.775C404.318 439.371 404.424 438.93 404.433 438.482Z" fill="#3C096C"/>
<path d="M406.935 432.17C405.774 433.793 402.318 433.317 402.318 433.317C402.318 433.317 400.745 430.199 401.905 428.576C402.106 428.168 402.393 427.809 402.747 427.524C403.101 427.238 403.512 427.033 403.953 426.922C404.394 426.812 404.854 426.798 405.301 426.883C405.747 426.967 406.17 427.148 406.54 427.412C406.91 427.677 407.218 428.018 407.442 428.413C407.667 428.808 407.802 429.247 407.84 429.7C407.877 430.153 407.816 430.608 407.659 431.034C407.503 431.461 407.256 431.848 406.935 432.17Z" fill="#3C096C"/>
<path d="M421.288 462.534C419.315 462.83 418.193 466.128 418.193 466.128C418.193 466.128 420.257 468.937 422.23 468.627C422.679 468.626 423.122 468.527 423.53 468.339C423.937 468.15 424.299 467.876 424.591 467.535C424.883 467.194 425.098 466.794 425.221 466.362C425.343 465.931 425.371 465.478 425.303 465.034C425.234 464.591 425.071 464.168 424.824 463.793C424.576 463.419 424.251 463.102 423.87 462.864C423.488 462.627 423.061 462.475 422.615 462.418C422.17 462.361 421.717 462.4 421.288 462.534Z" fill="#3C096C"/>
<path d="M412.751 463.281C413.447 465.149 416.916 465.574 416.916 465.574C416.916 465.574 419.238 462.998 418.528 461.104C418.433 460.666 418.244 460.254 417.975 459.896C417.706 459.538 417.363 459.242 416.969 459.028C416.576 458.814 416.14 458.687 415.693 458.657C415.246 458.626 414.797 458.692 414.377 458.85C413.958 459.008 413.577 459.254 413.262 459.573C412.946 459.891 412.703 460.273 412.549 460.694C412.394 461.114 412.332 461.563 412.367 462.009C412.402 462.456 412.533 462.89 412.751 463.281Z" fill="#3C096C"/>
<path d="M413.796 469.993C413.989 468.009 417.213 466.682 417.213 466.682C417.213 466.682 420.141 468.589 419.947 470.547C419.969 470.993 419.894 471.439 419.728 471.854C419.562 472.268 419.309 472.643 418.985 472.951C418.662 473.26 418.276 473.495 417.853 473.642C417.431 473.788 416.982 473.842 416.537 473.8C416.091 473.758 415.66 473.621 415.273 473.398C414.885 473.176 414.55 472.872 414.29 472.509C414.03 472.145 413.852 471.73 413.766 471.292C413.681 470.853 413.691 470.401 413.796 469.967V469.993Z" fill="#3C096C"/>
<path d="M422.255 371.468C420.721 372.756 421.482 376.144 421.482 376.144C421.482 376.144 424.706 377.432 426.227 376.144C426.612 375.91 426.941 375.596 427.193 375.224C427.445 374.851 427.612 374.428 427.685 373.984C427.758 373.541 427.734 373.087 427.614 372.653C427.495 372.22 427.283 371.817 426.993 371.473C426.703 371.129 426.343 370.852 425.936 370.66C425.528 370.469 425.085 370.367 424.635 370.363C424.185 370.359 423.739 370.452 423.328 370.636C422.918 370.82 422.552 371.09 422.255 371.429V371.468Z" fill="#3C096C"/>
<path d="M415.369 376.595C416.942 377.819 420.128 376.376 420.128 376.376C420.128 376.376 420.747 372.949 419.173 371.725C418.861 371.411 418.486 371.167 418.073 371.008C417.66 370.849 417.217 370.78 416.775 370.804C416.333 370.828 415.901 370.946 415.508 371.149C415.114 371.353 414.769 371.637 414.494 371.983C414.218 372.33 414.02 372.731 413.911 373.16C413.802 373.588 413.785 374.035 413.862 374.471C413.938 374.907 414.106 375.321 414.355 375.687C414.604 376.053 414.927 376.363 415.304 376.595H415.369Z" fill="#3C096C"/>
<path d="M419.754 381.786C418.877 379.996 420.94 377.187 420.94 377.187C420.94 377.187 424.422 377.29 425.299 379.081C425.554 379.45 425.727 379.87 425.805 380.312C425.883 380.754 425.864 381.208 425.751 381.642C425.637 382.077 425.431 382.481 425.146 382.829C424.861 383.176 424.505 383.458 424.101 383.655C423.697 383.852 423.255 383.959 422.806 383.97C422.357 383.981 421.911 383.895 421.498 383.717C421.085 383.54 420.716 383.275 420.415 382.942C420.113 382.609 419.888 382.215 419.754 381.786Z" fill="#3C096C"/>
<path d="M487.859 220.794C486.337 222.082 487.085 225.483 487.085 225.483C487.085 225.483 490.322 226.771 491.844 225.483C492.234 225.25 492.568 224.935 492.823 224.561C493.079 224.186 493.251 223.761 493.326 223.314C493.4 222.866 493.377 222.408 493.257 221.971C493.137 221.534 492.924 221.127 492.632 220.78C492.34 220.434 491.975 220.154 491.564 219.962C491.153 219.77 490.705 219.669 490.251 219.666C489.797 219.664 489.349 219.76 488.936 219.948C488.522 220.136 488.155 220.411 487.859 220.755V220.794Z" fill="#3C096C"/>
<path d="M480.986 225.921C482.559 227.209 485.731 225.715 485.731 225.715C485.731 225.715 486.363 222.288 484.79 221.064C484.477 220.762 484.104 220.529 483.696 220.38C483.287 220.231 482.852 220.168 482.418 220.197C481.984 220.225 481.561 220.344 481.176 220.545C480.79 220.747 480.451 221.026 480.18 221.366C479.91 221.706 479.713 222.099 479.603 222.519C479.493 222.94 479.473 223.378 479.542 223.807C479.612 224.236 479.77 224.645 480.008 225.009C480.245 225.373 480.556 225.684 480.921 225.921H480.986Z" fill="#3C096C"/>
<path d="M485.357 231.125C484.48 229.335 486.557 226.526 486.557 226.526C486.557 226.526 490.039 226.629 490.916 228.42C491.179 228.79 491.359 229.214 491.442 229.66C491.525 230.107 491.51 230.567 491.398 231.007C491.285 231.448 491.078 231.858 490.791 232.21C490.504 232.563 490.143 232.849 489.734 233.048C489.325 233.247 488.878 233.354 488.423 233.363C487.968 233.372 487.517 233.282 487.1 233.099C486.684 232.916 486.312 232.645 486.011 232.304C485.71 231.963 485.487 231.561 485.357 231.125Z" fill="#3C096C"/>
<path d="M478.045 248.336C476.988 246.636 473.519 246.894 473.519 246.894C473.519 246.894 471.752 249.895 472.796 251.596C472.969 252.017 473.232 252.395 473.566 252.705C473.9 253.014 474.298 253.247 474.732 253.387C475.165 253.527 475.624 253.571 476.077 253.516C476.529 253.461 476.963 253.307 477.35 253.067C477.737 252.827 478.067 252.505 478.317 252.124C478.567 251.744 478.73 251.313 478.797 250.863C478.863 250.413 478.83 249.953 478.7 249.517C478.57 249.08 478.347 248.678 478.045 248.336Z" fill="#3C096C"/>
<path d="M473.944 240.8C472.512 242.178 473.48 245.528 473.48 245.528C473.48 245.528 476.781 246.636 478.226 245.257C478.601 245 478.915 244.665 479.147 244.274C479.379 243.884 479.524 243.447 479.57 242.996C479.617 242.544 479.564 242.088 479.416 241.658C479.269 241.229 479.029 240.836 478.714 240.508C478.399 240.181 478.017 239.925 477.593 239.76C477.17 239.595 476.715 239.523 476.262 239.551C475.808 239.579 475.365 239.705 474.965 239.921C474.565 240.136 474.216 240.436 473.944 240.8Z" fill="#3C096C"/>
<path d="M468.179 244.381C470.075 243.776 472.564 246.211 472.564 246.211C472.564 246.211 471.971 249.65 470.062 250.256C469.66 250.453 469.219 250.562 468.771 250.574C468.323 250.586 467.878 250.501 467.465 250.326C467.052 250.151 466.682 249.889 466.38 249.558C466.078 249.227 465.851 248.835 465.714 248.408C465.577 247.982 465.534 247.53 465.588 247.086C465.641 246.641 465.79 246.213 466.024 245.831C466.258 245.449 466.572 245.122 466.944 244.871C467.315 244.621 467.737 244.454 468.179 244.381Z" fill="#3C096C"/>
<path d="M445.675 238.713C446.591 240.478 450.073 240.504 450.073 240.504C450.073 240.504 452.085 237.644 451.156 235.879C451.012 235.454 450.777 235.065 450.468 234.739C450.16 234.413 449.784 234.158 449.367 233.99C448.95 233.823 448.502 233.747 448.053 233.768C447.605 233.79 447.166 233.907 446.767 234.114C446.368 234.32 446.018 234.61 445.741 234.964C445.465 235.318 445.268 235.727 445.165 236.163C445.061 236.6 445.053 237.054 445.141 237.494C445.229 237.934 445.411 238.35 445.675 238.713Z" fill="#3C096C"/>
<path d="M449.157 246.546C450.705 245.257 450.009 241.869 450.009 241.869C450.009 241.869 446.797 240.504 445.25 241.766C444.854 241.988 444.511 242.294 444.245 242.662C443.979 243.03 443.797 243.451 443.712 243.897C443.626 244.342 443.639 244.802 443.749 245.242C443.859 245.682 444.064 246.093 444.35 246.446C444.635 246.798 444.995 247.085 445.402 247.284C445.81 247.484 446.257 247.593 446.711 247.602C447.165 247.612 447.616 247.522 448.032 247.34C448.448 247.157 448.818 246.886 449.119 246.546H449.157Z" fill="#3C096C"/>
<path d="M455.206 243.428C453.258 243.892 450.976 241.251 450.976 241.251C450.976 241.251 451.84 237.876 453.787 237.386C454.204 237.221 454.651 237.147 455.099 237.17C455.547 237.192 455.984 237.311 456.382 237.518C456.78 237.725 457.128 238.015 457.403 238.369C457.679 238.722 457.874 239.131 457.977 239.567C458.08 240.003 458.088 240.456 458 240.895C457.912 241.334 457.73 241.749 457.467 242.112C457.204 242.475 456.866 242.777 456.476 242.997C456.085 243.217 455.652 243.351 455.206 243.389V243.428Z" fill="#3C096C"/>
<path d="M420.141 255.679C421.701 256.967 424.9 255.525 424.9 255.525C424.9 255.525 425.57 252.111 424.009 250.861C423.706 250.523 423.333 250.254 422.915 250.074C422.497 249.895 422.045 249.808 421.59 249.82C421.135 249.833 420.689 249.944 420.281 250.146C419.874 250.348 419.515 250.637 419.231 250.991C418.946 251.345 418.742 251.758 418.633 252.199C418.524 252.64 418.512 253.1 418.599 253.546C418.685 253.992 418.868 254.414 419.134 254.782C419.401 255.151 419.744 255.457 420.141 255.679Z" fill="#3C096C"/>
<path d="M426.524 261.425C427.414 259.634 425.389 256.813 425.389 256.813C425.389 256.813 421.908 256.813 421.005 258.642C420.736 259.009 420.55 259.43 420.46 259.875C420.371 260.321 420.379 260.781 420.486 261.223C420.592 261.665 420.793 262.079 421.076 262.435C421.358 262.791 421.715 263.082 422.121 263.287C422.527 263.491 422.973 263.605 423.428 263.621C423.883 263.636 424.335 263.552 424.754 263.375C425.173 263.198 425.549 262.932 425.854 262.595C426.16 262.258 426.389 261.859 426.524 261.425Z" fill="#3C096C"/>
<path d="M430.767 256.117C429.181 257.328 426.021 255.847 426.021 255.847C426.021 255.847 425.441 252.42 427.027 251.209C427.34 250.889 427.719 250.639 428.138 250.478C428.556 250.317 429.004 250.248 429.451 250.276C429.899 250.303 430.335 250.427 430.731 250.638C431.126 250.849 431.471 251.143 431.743 251.499C432.015 251.856 432.206 252.266 432.305 252.703C432.403 253.14 432.406 253.593 432.313 254.031C432.221 254.47 432.035 254.883 431.768 255.243C431.501 255.603 431.16 255.901 430.767 256.117Z" fill="#3C096C"/>
<path d="M400.061 294.649C401.609 295.937 404.807 294.495 404.807 294.495C404.807 294.495 405.478 291.081 403.917 289.831C403.611 289.507 403.238 289.253 402.825 289.086C402.412 288.918 401.968 288.84 401.522 288.858C401.077 288.877 400.64 288.99 400.242 289.191C399.844 289.391 399.494 289.675 399.215 290.022C398.936 290.37 398.735 290.773 398.625 291.205C398.515 291.636 398.499 292.087 398.578 292.525C398.657 292.963 398.829 293.38 399.083 293.746C399.336 294.113 399.666 294.42 400.048 294.649H400.061Z" fill="#3C096C"/>
<path d="M406.432 300.394C407.335 298.604 405.297 295.783 405.297 295.783C405.297 295.783 401.815 295.783 400.912 297.612C400.643 297.979 400.457 298.399 400.368 298.845C400.278 299.291 400.287 299.75 400.393 300.192C400.5 300.634 400.701 301.048 400.983 301.405C401.265 301.761 401.622 302.052 402.028 302.256C402.435 302.461 402.881 302.575 403.336 302.59C403.79 302.606 404.243 302.522 404.662 302.344C405.081 302.167 405.456 301.901 405.762 301.564C406.068 301.228 406.296 300.828 406.432 300.394Z" fill="#3C096C"/>
<path d="M410.688 295.061C409.089 296.272 405.942 294.791 405.942 294.791C405.942 294.791 405.348 291.364 406.948 290.153C407.261 289.832 407.64 289.583 408.058 289.422C408.476 289.261 408.925 289.192 409.372 289.22C409.82 289.247 410.256 289.371 410.652 289.582C411.047 289.793 411.392 290.087 411.664 290.443C411.935 290.799 412.127 291.21 412.225 291.647C412.324 292.084 412.327 292.537 412.234 292.975C412.141 293.413 411.955 293.827 411.688 294.186C411.422 294.546 411.08 294.845 410.688 295.061Z" fill="#3C096C"/>
<path d="M449.273 264.993C447.984 263.473 444.592 264.208 444.592 264.208C444.592 264.208 443.302 267.428 444.592 268.961C444.828 269.341 445.143 269.665 445.515 269.912C445.888 270.16 446.309 270.324 446.751 270.394C447.192 270.465 447.644 270.439 448.075 270.32C448.506 270.201 448.907 269.991 449.249 269.704C449.592 269.417 449.868 269.059 450.06 268.656C450.253 268.252 450.356 267.813 450.363 267.366C450.371 266.919 450.281 266.476 450.102 266.067C449.923 265.657 449.658 265.291 449.325 264.993H449.273Z" fill="#3C096C"/>
<path d="M444.18 258.101C442.89 259.673 444.36 262.855 444.36 262.855C444.36 262.855 447.791 263.499 449.029 261.927C449.339 261.617 449.58 261.244 449.736 260.835C449.892 260.425 449.96 259.987 449.936 259.549C449.911 259.111 449.794 258.683 449.593 258.294C449.391 257.904 449.11 257.561 448.766 257.288C448.423 257.014 448.026 256.816 447.601 256.706C447.176 256.597 446.732 256.578 446.299 256.651C445.867 256.724 445.454 256.887 445.089 257.131C444.723 257.374 444.414 257.691 444.18 258.063V258.101Z" fill="#3C096C"/>
<path d="M438.956 262.456C440.749 261.592 443.548 263.666 443.548 263.666C443.548 263.666 443.444 267.145 441.639 268.021C441.267 268.282 440.842 268.459 440.395 268.54C439.947 268.621 439.487 268.604 439.047 268.49C438.607 268.375 438.197 268.166 437.845 267.878C437.494 267.589 437.21 267.228 437.012 266.818C436.815 266.409 436.709 265.961 436.703 265.507C436.696 265.053 436.788 264.602 436.973 264.187C437.158 263.772 437.431 263.402 437.774 263.103C438.116 262.804 438.52 262.583 438.956 262.456Z" fill="#3C096C"/>
<path d="M414.814 324.382C413.525 322.849 410.133 323.583 410.133 323.583C410.133 323.583 408.843 326.804 410.133 328.337C410.362 328.73 410.675 329.068 411.049 329.328C411.423 329.588 411.849 329.763 412.298 329.842C412.747 329.921 413.207 329.901 413.648 329.783C414.088 329.666 414.497 329.454 414.847 329.162C415.197 328.871 415.479 328.507 415.673 328.095C415.868 327.684 415.97 327.235 415.973 326.78C415.976 326.324 415.88 325.874 415.691 325.46C415.502 325.046 415.225 324.678 414.879 324.382H414.814Z" fill="#3C096C"/>
<path d="M409.707 317.49C408.482 319.048 409.901 322.231 409.901 322.231C409.901 322.231 413.331 322.875 414.569 321.303C414.891 320.994 415.142 320.619 415.307 320.205C415.471 319.79 415.546 319.346 415.525 318.9C415.503 318.455 415.387 318.02 415.184 317.623C414.981 317.226 414.695 316.877 414.345 316.599C413.996 316.322 413.592 316.122 413.159 316.013C412.726 315.904 412.275 315.889 411.836 315.969C411.397 316.048 410.98 316.22 410.613 316.474C410.246 316.727 409.937 317.056 409.707 317.438V317.49Z" fill="#3C096C"/>
<path d="M404.497 321.831C406.29 320.968 409.089 323.042 409.089 323.042C409.089 323.042 408.972 326.521 407.18 327.397C406.808 327.658 406.383 327.835 405.936 327.916C405.488 327.997 405.028 327.98 404.588 327.865C404.148 327.751 403.738 327.542 403.386 327.253C403.035 326.965 402.751 326.603 402.554 326.194C402.356 325.784 402.251 325.337 402.244 324.883C402.237 324.428 402.329 323.978 402.514 323.563C402.699 323.148 402.972 322.778 403.315 322.479C403.657 322.18 404.061 321.959 404.497 321.831Z" fill="#3C096C"/>
<path d="M432.521 283.467C430.574 283.016 428.304 285.657 428.304 285.657C428.304 285.657 429.194 289.032 431.141 289.522C431.559 289.682 432.006 289.751 432.452 289.724C432.899 289.697 433.334 289.574 433.729 289.365C434.124 289.155 434.469 288.863 434.741 288.508C435.013 288.153 435.205 287.744 435.305 287.309C435.405 286.873 435.41 286.421 435.32 285.984C435.229 285.546 435.046 285.133 434.782 284.772C434.518 284.412 434.18 284.112 433.79 283.893C433.4 283.675 432.967 283.542 432.521 283.505V283.467Z" fill="#3C096C"/>
<path d="M424.28 281.109C424.28 283.106 427.311 284.768 427.311 284.768C427.311 284.768 430.419 283.209 430.458 281.213C430.529 280.771 430.504 280.32 430.385 279.889C430.266 279.458 430.056 279.058 429.769 278.715C429.482 278.373 429.124 278.096 428.72 277.903C428.316 277.711 427.876 277.608 427.429 277.6C426.981 277.593 426.537 277.681 426.127 277.86C425.717 278.039 425.351 278.304 425.052 278.637C424.754 278.97 424.53 279.362 424.397 279.789C424.264 280.216 424.224 280.666 424.28 281.109Z" fill="#3C096C"/>
<path d="M422.758 287.731C423.661 285.953 427.143 285.914 427.143 285.914C427.143 285.914 429.168 288.749 428.265 290.526C428.122 290.95 427.889 291.338 427.582 291.664C427.275 291.99 426.902 292.246 426.487 292.415C426.073 292.584 425.627 292.662 425.179 292.643C424.732 292.625 424.294 292.51 423.895 292.308C423.495 292.105 423.145 291.819 422.866 291.469C422.587 291.119 422.387 290.713 422.279 290.279C422.172 289.845 422.159 289.392 422.241 288.953C422.324 288.513 422.5 288.097 422.758 287.731Z" fill="#3C096C"/>
<path d="M343.382 325.979C345.226 326.727 347.882 324.459 347.882 324.459C347.882 324.459 347.547 320.994 345.69 320.247C345.301 320.012 344.866 319.864 344.415 319.814C343.963 319.763 343.506 319.812 343.075 319.955C342.645 320.099 342.25 320.334 341.919 320.645C341.589 320.957 341.329 321.336 341.16 321.757C340.99 322.178 340.915 322.63 340.938 323.084C340.961 323.537 341.082 323.979 341.293 324.381C341.505 324.783 341.801 325.134 342.161 325.41C342.522 325.686 342.938 325.88 343.382 325.979Z" fill="#3C096C"/>
<path d="M351.132 329.651C351.48 327.68 348.721 325.554 348.721 325.554C348.721 325.554 345.393 326.598 345.045 328.569C344.893 328.997 344.836 329.453 344.878 329.906C344.92 330.358 345.061 330.797 345.29 331.189C345.518 331.582 345.83 331.921 346.203 332.181C346.576 332.442 347.001 332.618 347.449 332.697C347.897 332.777 348.357 332.758 348.797 332.642C349.237 332.526 349.647 332.316 349.997 332.026C350.348 331.736 350.631 331.374 350.827 330.963C351.023 330.553 351.127 330.105 351.132 329.651Z" fill="#3C096C"/>
<path d="M353.686 323.403C352.512 325.013 349.056 324.498 349.056 324.498C349.056 324.498 347.508 321.38 348.682 319.77C348.886 319.365 349.177 319.009 349.532 318.727C349.888 318.444 350.301 318.243 350.742 318.136C351.184 318.029 351.643 318.02 352.089 318.108C352.535 318.196 352.956 318.379 353.323 318.646C353.691 318.913 353.995 319.256 354.217 319.653C354.438 320.049 354.571 320.488 354.605 320.941C354.64 321.393 354.576 321.848 354.417 322.273C354.258 322.698 354.008 323.083 353.686 323.403Z" fill="#3C096C"/>
<path d="M360.624 348.717C362.546 348.189 363.268 344.775 363.268 344.775C363.268 344.775 360.882 342.198 358.96 342.778C358.515 342.834 358.087 342.985 357.706 343.221C357.324 343.457 356.998 343.773 356.75 344.146C356.501 344.519 356.337 344.942 356.266 345.385C356.196 345.827 356.223 346.28 356.344 346.711C356.465 347.143 356.677 347.544 356.967 347.886C357.257 348.228 357.617 348.503 358.024 348.694C358.43 348.884 358.873 348.985 359.321 348.989C359.77 348.993 360.214 348.9 360.624 348.717Z" fill="#3C096C"/>
<path d="M369.006 346.913C368.091 345.136 364.596 345.136 364.596 345.136C364.596 345.136 362.597 347.983 363.525 349.76C363.673 350.182 363.91 350.568 364.22 350.89C364.53 351.213 364.905 351.466 365.321 351.63C365.737 351.795 366.184 351.869 366.631 351.846C367.078 351.823 367.515 351.705 367.912 351.498C368.309 351.292 368.657 351.003 368.932 350.65C369.208 350.298 369.404 349.89 369.508 349.456C369.612 349.021 369.62 348.569 369.534 348.13C369.447 347.691 369.268 347.276 369.006 346.913Z" fill="#3C096C"/>
<path d="M367.188 340.369C367.188 342.353 364.196 344.053 364.196 344.053C364.196 344.053 361.063 342.52 361.011 340.524C360.924 340.077 360.935 339.616 361.044 339.174C361.153 338.732 361.357 338.318 361.642 337.963C361.928 337.608 362.287 337.32 362.696 337.117C363.104 336.915 363.552 336.805 364.008 336.793C364.464 336.782 364.916 336.87 365.335 337.051C365.753 337.233 366.127 337.503 366.429 337.844C366.732 338.184 366.957 338.586 367.088 339.023C367.219 339.459 367.253 339.918 367.188 340.369Z" fill="#3C096C"/>
<path d="M374.255 326.662C374.371 328.646 377.557 330.089 377.557 330.089C377.557 330.089 380.536 328.285 380.42 326.301C380.459 325.855 380.402 325.406 380.252 324.984C380.102 324.562 379.862 324.177 379.55 323.856C379.238 323.534 378.859 323.284 378.442 323.122C378.024 322.96 377.576 322.889 377.128 322.915C376.681 322.941 376.244 323.064 375.848 323.273C375.452 323.483 375.106 323.776 374.833 324.132C374.561 324.487 374.368 324.897 374.268 325.334C374.169 325.77 374.164 326.224 374.255 326.662Z" fill="#3C096C"/>
<path d="M374.255 335.229C376.177 334.714 376.925 331.364 376.925 331.364C376.925 331.364 374.552 328.788 372.631 329.342C372.186 329.396 371.758 329.544 371.376 329.778C370.993 330.012 370.666 330.326 370.416 330.697C370.166 331.068 369.999 331.489 369.926 331.931C369.854 332.373 369.877 332.825 369.995 333.257C370.113 333.689 370.322 334.09 370.609 334.434C370.897 334.777 371.254 335.055 371.659 335.249C372.063 335.442 372.504 335.546 372.952 335.554C373.4 335.561 373.845 335.473 374.255 335.293V335.229Z" fill="#3C096C"/>
<path d="M381.052 334.842C379.079 334.468 378.06 331.132 378.06 331.132C378.06 331.132 380.226 328.401 382.187 328.775C382.633 328.794 383.071 328.909 383.469 329.111C383.867 329.314 384.218 329.6 384.496 329.95C384.774 330.299 384.974 330.704 385.081 331.138C385.189 331.571 385.202 332.023 385.12 332.462C385.038 332.901 384.863 333.317 384.605 333.682C384.348 334.048 384.015 334.354 383.63 334.579C383.244 334.805 382.814 334.945 382.369 334.991C381.925 335.036 381.475 334.985 381.052 334.842Z" fill="#3C096C"/>
<path d="M458.017 496.595H357.49C357.142 496.595 356.799 496.672 356.485 496.822C356.171 496.972 355.895 497.191 355.677 497.461C355.459 497.732 355.305 498.049 355.226 498.387C355.147 498.725 355.145 499.077 355.221 499.416L356.51 505.652C356.625 506.171 356.914 506.635 357.329 506.968C357.744 507.301 358.261 507.482 358.793 507.481H455.606C456.079 507.482 456.542 507.338 456.932 507.069C457.322 506.799 457.619 506.417 457.785 505.974L460.132 499.739C460.264 499.392 460.311 499.018 460.269 498.65C460.227 498.281 460.097 497.928 459.889 497.62C459.682 497.312 459.404 497.058 459.078 496.88C458.753 496.702 458.389 496.604 458.017 496.595V496.595Z" stroke="#3C096C" stroke-miterlimit="10"/>
<path d="M450.034 517.298C448.925 517.298 364.209 507.481 364.209 507.481H451.053L450.034 517.298Z" fill="#3C096C"/>
<path d="M510.837 333.322H487.327C487.067 333.323 486.81 333.378 486.573 333.484C486.335 333.59 486.123 333.744 485.949 333.937C485.775 334.13 485.644 334.357 485.564 334.604C485.483 334.851 485.456 335.112 485.483 335.371L487.804 358.327C487.862 358.916 488.137 359.462 488.575 359.86C489.014 360.258 489.585 360.478 490.177 360.479H508.529C509.131 360.48 509.712 360.254 510.155 359.846C510.597 359.437 510.869 358.876 510.914 358.276L512.707 335.319C512.727 335.063 512.693 334.805 512.607 334.563C512.522 334.32 512.387 334.098 512.211 333.91C512.036 333.722 511.823 333.573 511.586 333.472C511.349 333.371 511.094 333.32 510.837 333.322V333.322Z" stroke="#3C096C" stroke-miterlimit="10"/>
<path d="M512.398 339.235H485.87L512.024 343.976L512.398 339.235Z" fill="#3C096C"/>
<path d="M488.487 327.267C488.505 328.1 488.741 328.914 489.17 329.629C489.6 330.343 490.209 330.932 490.938 331.338C493.427 332.678 496.24 333.298 499.062 333.129C503.95 333.129 506.8 331.931 508.167 330.153C508.909 329.138 509.23 327.877 509.064 326.632C508.898 325.387 508.258 324.253 507.278 323.467C505.717 322.179 503.06 321.393 499.062 321.393C494.523 321.393 491.531 322.424 489.919 323.969C489.467 324.392 489.107 324.903 488.861 325.47C488.615 326.038 488.488 326.649 488.487 327.267V327.267Z" stroke="#3C096C" stroke-miterlimit="10"/>
<path d="M489.687 312.968C489.437 313.489 489.328 314.067 489.371 314.643C489.414 315.219 489.608 315.774 489.932 316.253C491.06 317.856 492.609 319.117 494.407 319.899C497.438 321.432 499.566 321.574 500.984 320.891C501.759 320.492 502.351 319.811 502.637 318.988C502.923 318.165 502.88 317.265 502.519 316.472C501.502 314.73 499.938 313.371 498.07 312.607C495.271 311.19 493.092 310.894 491.621 311.319C491.202 311.446 490.814 311.657 490.482 311.941C490.149 312.225 489.878 312.575 489.687 312.968V312.968Z" stroke="#3C096C" stroke-miterlimit="10"/>
<path d="M494.51 306.398C494.318 306.355 494.118 306.363 493.93 306.422C493.742 306.481 493.573 306.588 493.44 306.733C492.994 307.22 492.695 307.822 492.576 308.472C492.434 308.835 492.377 309.225 492.408 309.613C492.44 310.002 492.559 310.378 492.757 310.713C492.908 310.906 493.123 311.038 493.363 311.087C493.529 311.132 493.703 311.137 493.871 311.101C494.039 311.065 494.197 310.989 494.33 310.881C494.828 310.418 495.155 309.801 495.258 309.129C495.511 308.407 495.484 307.616 495.181 306.913C495.109 306.787 495.013 306.677 494.898 306.588C494.782 306.5 494.651 306.435 494.51 306.398Z" fill="#3C096C"/>
<path d="M549.217 360.479L511.147 355.248V360.968L549.217 360.479Z" fill="#3C096C"/>
<path d="M1000.79 370.54C1127.04 274.746 1044.18 -19.9422 814.224 15.7939C584.269 51.53 312.63 575.782 7 8.5" stroke="#3C096C" stroke-miterlimit="10"/>
</g>
<defs>
<clipPath id="clip0_12_323">
<rect width="1064" height="594" fill="white" transform="matrix(-1 0 0 1 1064 0)"/>
</clipPath>
</defs>
</svg>
