<svg width="394" height="316" viewBox="0 0 394 316" fill="none" xmlns="http://www.w3.org/2000/svg">
<g clip-path="url(#clip0_12:185)">
<path d="M137.865 106.136C140.687 102.447 147.411 94.5501 151.503 92.5082H152.339L154.896 91.6564C155.748 90.8047 157.628 89.1012 158.283 89.1012C159.135 89.1012 169.37 101.026 171.075 103.581C172.78 106.136 171.927 106.965 171.927 108.691C171.927 110.057 170.798 109.82 170.234 109.543L166.847 133.398L169.404 141.915L206.057 126.578L210.32 135.101C200.379 140.212 179.272 151.115 174.518 153.84C169.765 156.564 165.706 157.224 164.289 157.224L163.431 164.038H126.778C121.319 164.038 118.254 162.346 117.401 161.483C116.863 146.89 120.405 132.435 127.63 119.742C130.362 114.998 135.59 108.691 137.865 106.136Z" fill="white"/>
<path d="M162.81 115.505C163.488 120.238 169.195 142.355 169.195 142.355L219.611 120.921L225.025 127.69C225.025 127.69 191.888 145.932 171.6 155.391C151.311 164.851 147.93 140.533 143.877 113.514" stroke="#262626" stroke-width="1.56" stroke-miterlimit="10"/>
<path d="M172.277 104.709L171.713 109.656C171.696 109.769 171.651 109.875 171.583 109.966C171.515 110.058 171.423 110.13 171.318 110.175C171.213 110.227 171.094 110.244 170.979 110.226C170.865 110.212 170.756 110.17 170.663 110.102L170.364 109.876L170.505 107.986C170.626 106.385 170.311 104.781 169.591 103.345C168.871 101.91 167.774 100.697 166.418 99.8355L155.353 92.8071C154.951 92.5599 154.516 92.3701 154.061 92.243L156.567 89.479C156.752 89.2782 156.977 89.1187 157.227 89.0109C157.48 88.9033 157.754 88.8532 158.029 88.8642C158.301 88.8709 158.569 88.9363 158.814 89.056C159.059 89.1764 159.275 89.3498 159.446 89.5637L172.277 104.709Z" stroke="#262626" stroke-width="1.56" stroke-miterlimit="10"/>
<path d="M154.083 92.2036C154.538 92.3306 154.973 92.5205 155.376 92.7677L166.452 99.8073C167.808 100.668 168.905 101.882 169.625 103.317C170.344 104.753 170.66 106.357 170.539 107.958L170.397 109.848" stroke="#262626" stroke-width="1.56" stroke-miterlimit="10"/>
<path d="M170.403 109.865L167.264 134.267" stroke="#262626" stroke-width="1.56" stroke-miterlimit="10"/>
<path d="M117.554 162.448C114.59 127.966 139.107 102.56 149.544 93.2471C150.149 92.6971 150.883 92.309 151.678 92.119C152.472 91.9335 153.3 91.9549 154.083 92.181" stroke="#262626" stroke-width="1.56" stroke-miterlimit="10"/>
<path d="M183.951 71.9139C184.087 66.9951 178.831 58.9402 167.964 61.9072C157.098 64.8742 152.757 74.1194 154.783 79.0042C156.81 83.8891 161.331 86.3767 165.876 83.7425C165.876 83.7425 163.336 78.8689 166.937 76.4546C170.539 74.0404 171.041 79.1678 170.454 81.1026C169.867 83.0374 173.643 79.9745 175.303 76.9623C176.211 76.9728 177.111 76.801 177.951 76.457C178.791 76.113 179.553 75.6038 180.192 74.9598C181.292 73.7691 182.558 72.7432 183.951 71.9139Z" fill="#262626"/>
<path d="M166.943 61.5235C167.436 61.2251 167.826 60.783 168.06 60.2566C168.294 59.7302 168.361 59.1448 168.252 58.5791C167.372 53.9988 162.353 47.2412 154.348 50.3323C144.978 53.9424 149.392 62.4204 153.671 62.3471C156.347 62.3848 158.905 63.4492 160.818 65.3197L166.943 61.5235Z" fill="#262626"/>
<path d="M167.987 88.8417C167.987 88.8417 176.24 96.4003 177.973 95.4018C179.706 94.4034 182.009 87.2679 182.009 87.2679C182.953 87.3989 183.914 87.3336 184.832 87.0762C185.713 86.6249 183.28 83.0317 183.443 80.2565C183.607 77.4812 184.409 73.8317 183.534 72.1338" stroke="#262626" stroke-width="1.56" stroke-miterlimit="10"/>
<path d="M158.752 89.1576C160.568 87.4668 162.202 85.5914 163.629 83.5619" stroke="#262626" stroke-width="1.56" stroke-miterlimit="10"/>
<path d="M172.887 92.9143C172.887 92.9143 168.145 98.4479 168.185 100.591" stroke="#262626" stroke-width="1.56" stroke-miterlimit="10"/>
<path d="M183.556 72.1338C183.088 74.2491 179.379 78.6094 175.952 78.2371" stroke="#262626" stroke-width="1.56" stroke-miterlimit="10"/>
<path d="M161.642 66.2843C160.552 65.2295 157.335 62.7702 154.546 63.3399C151.757 63.9096 151.103 62.601 151.103 62.601" stroke="#262626" stroke-width="1.56" stroke-miterlimit="10"/>
<path d="M206.041 126.685L210.619 135.468" stroke="#262626" stroke-width="1.56" stroke-miterlimit="10"/>
<path d="M220.289 121.592C220.289 121.592 221.762 118.027 222.654 117.254C223.219 116.752 224.856 117.322 225.94 117.818C226.04 117.859 226.126 117.927 226.188 118.016C226.251 118.106 226.288 118.211 226.295 118.32C226.306 118.431 226.286 118.542 226.237 118.641C226.188 118.741 226.113 118.825 226.019 118.884L224.325 119.973C224.325 119.973 224.28 121.733 225.556 121.801C226.436 121.801 231.946 119.099 234.927 117.559C234.994 117.536 235.068 117.536 235.135 117.559C235.205 117.581 235.266 117.624 235.31 117.683C235.349 117.743 235.367 117.814 235.361 117.886C235.356 117.959 235.326 118.029 235.277 118.083C232.324 120.842 229.067 124.852 224.342 127.046" stroke="#262626" stroke-width="1.56" stroke-miterlimit="10"/>
<path d="M224.331 119.933L240.984 112.07C241.063 112.038 241.147 112.018 241.232 112.014C241.316 112.014 241.398 112.031 241.475 112.064C241.551 112.097 241.621 112.145 241.678 112.206C241.735 112.267 241.777 112.34 241.802 112.42L242.068 113.221C242.13 113.385 242.13 113.565 242.068 113.729C242.002 113.892 241.877 114.025 241.718 114.101L225.347 121.936L224.331 119.933Z" fill="#262626"/>
<path d="M143.544 113.994C143.544 113.994 140.653 161.844 163.488 161.675L163.928 157.45C163.928 157.45 156.296 158.014 152.209 149.852C148.122 141.69 143.544 113.994 143.544 113.994Z" fill="#262626"/>
<path d="M163.11 115.466L167.812 129.686L167.247 134.001L164.267 122.427L163.11 115.466Z" fill="#262626"/>
<path d="M160.665 87.2679L168.173 99.5196L158.881 89.0391L160.665 87.2679Z" fill="#262626"/>
<path d="M149.087 315.611C149.264 294.598 157.742 274.506 172.675 259.71C187.608 244.913 207.786 236.611 228.816 236.611C249.846 236.611 270.024 244.913 284.957 259.71C299.89 274.506 308.367 294.598 308.544 315.611H149.087Z" fill="#5B3FBF"/>
<path d="M168.089 162.628L219.12 310.416H209.704L132.299 169.019L168.089 162.628Z" fill="#262626"/>
<path d="M394.006 315.318H-0.022522" stroke="#262626" stroke-width="1.18" stroke-miterlimit="10"/>
<path d="M211.872 315.182L210.003 310.427H219.459C223.241 310.427 225.341 311.939 228.248 313.732C228.365 313.791 228.457 313.888 228.51 314.007C228.562 314.126 228.573 314.26 228.538 314.385C228.503 314.511 228.426 314.621 228.32 314.696C228.214 314.771 228.085 314.807 227.955 314.798L211.872 315.182Z" stroke="#262626" stroke-miterlimit="10"/>
<path d="M162.714 275.877L164.51 271.258L171.34 271.342C175.122 271.342 177.222 272.854 180.13 274.653C180.247 274.712 180.339 274.81 180.392 274.93C180.445 275.049 180.455 275.184 180.419 275.31C180.384 275.436 180.306 275.545 180.199 275.62C180.091 275.695 179.961 275.73 179.83 275.719L162.714 275.877Z" stroke="#262626" stroke-miterlimit="10"/>
<path d="M178.058 189.224C166.164 192.299 149.093 193.613 135.285 189.45C123.859 185.998 119.388 174.863 117.271 161.81C122.07 165.15 136.126 162.752 157.86 162.284L206.176 162.848C207.722 162.867 209.241 163.261 210.601 163.995C211.961 164.73 213.123 165.784 213.986 167.066C214.848 168.348 215.387 169.82 215.555 171.356C215.722 172.892 215.514 174.446 214.949 175.884L173.226 271.404L164.487 271.258L189.67 184.672C187.129 186.314 183.042 187.921 178.035 189.224C166.141 192.299 149.07 193.613 135.262 189.45" fill="#262626"/>
<path d="M180.209 191.712H121.923C119.984 191.712 118.412 193.283 118.412 195.22V196.478C118.412 198.416 119.984 199.987 121.923 199.987H180.209C182.148 199.987 183.72 198.416 183.72 196.478V195.22C183.72 193.283 182.148 191.712 180.209 191.712Z" fill="white" stroke="#262626" stroke-width="1.29" stroke-miterlimit="10"/>
<path d="M128.844 200.111L111.028 315.109" stroke="#262626" stroke-width="1.29" stroke-miterlimit="10"/>
<path d="M175.196 200.111L193.012 315.109" stroke="#262626" stroke-width="1.29" stroke-miterlimit="10"/>
<path d="M152.023 200.297V315.109" stroke="#262626" stroke-width="1.29" stroke-miterlimit="10"/>
<path d="M117.887 275.573L185.989 276.007" stroke="#262626" stroke-width="1.29" stroke-miterlimit="10"/>
<path d="M163.923 157.456L163.426 162.549" stroke="#262626" stroke-width="1.56" stroke-miterlimit="10"/>
<path d="M38.8214 277.666H76.8355L73.0533 315.109H41.7343L38.8214 277.666Z" stroke="#262626" stroke-miterlimit="10"/>
<path d="M14.4628 315.994C15.2361 315.994 41.6269 306.969 41.6269 306.969L42.1914 314.866L14.4628 315.994Z" fill="#262626"/>
<path d="M40.9721 231.564L56.9139 245.039C56.9139 245.039 56.6712 271.145 56.6938 272.899" stroke="#262626" stroke-miterlimit="10"/>
<path d="M52.889 241.638L57.1623 213.147L81.3685 198.847" stroke="#262626" stroke-miterlimit="10" stroke-linecap="round"/>
<path d="M67.1259 207.263L47.0237 168.878L26.3852 157.608" stroke="#262626" stroke-miterlimit="10" stroke-linecap="round"/>
<path d="M48.8358 231.801C48.2713 232.483 46.7923 232.201 46.7923 232.201C46.7923 232.201 46.1713 230.808 46.7132 230.125C46.8127 229.956 46.9475 229.81 47.1085 229.697C47.2695 229.584 47.4529 229.507 47.6462 229.471C47.8396 229.435 48.0385 229.441 48.2294 229.489C48.4202 229.536 48.5985 229.624 48.7523 229.747C48.906 229.869 49.0316 230.024 49.1205 230.199C49.2094 230.374 49.2595 230.567 49.2674 230.763C49.2753 230.96 49.2409 231.155 49.1664 231.337C49.0919 231.519 48.9792 231.683 48.8358 231.818V231.801Z" fill="#262626"/>
<path d="M46.6851 234.852C46.1206 234.181 46.6851 232.771 46.6851 232.771C46.6851 232.771 48.1754 232.455 48.7342 233.126C48.881 233.257 48.9979 233.418 49.0768 233.598C49.1558 233.778 49.1948 233.972 49.1915 234.169C49.1882 234.365 49.1425 234.559 49.0575 234.736C48.9726 234.913 48.8502 235.07 48.6991 235.195C48.5479 235.321 48.3714 235.412 48.1816 235.464C47.9918 235.515 47.7932 235.524 47.5993 235.492C47.4054 235.459 47.2208 235.385 47.0582 235.275C46.8956 235.165 46.7586 235.02 46.6569 234.852H46.6851Z" fill="#262626"/>
<path d="M44.3479 233.008C45.1439 233.369 46.3463 232.444 46.3463 232.444C46.3463 232.444 46.2559 230.921 45.46 230.565C45.2954 230.461 45.1105 230.394 44.9175 230.367C44.7246 230.34 44.5282 230.355 44.3414 230.411C44.1547 230.466 43.9819 230.561 43.8348 230.688C43.6877 230.816 43.5695 230.973 43.4883 231.15C43.4071 231.327 43.3647 231.519 43.3639 231.714C43.3631 231.908 43.4041 232.101 43.4839 232.278C43.5637 232.456 43.6806 232.614 43.8267 232.743C43.9728 232.872 44.1447 232.968 44.331 233.025L44.3479 233.008Z" fill="#262626"/>
<path d="M38.4826 227.237C39.1318 227.801 38.7649 229.296 38.7649 229.296C38.7649 229.296 37.3367 229.86 36.6819 229.257C36.5137 229.15 36.3706 229.009 36.2626 228.842C36.1547 228.674 36.0845 228.486 36.0569 228.289C36.0292 228.092 36.0448 227.891 36.1025 227.701C36.1602 227.51 36.2588 227.335 36.3912 227.186C36.5237 227.038 36.6867 226.92 36.8693 226.841C37.0519 226.762 37.2497 226.723 37.4487 226.728C37.6477 226.733 37.8432 226.781 38.0218 226.869C38.2003 226.957 38.3576 227.083 38.4826 227.237Z" fill="#262626"/>
<path d="M41.4295 229.544C40.7295 230.063 39.3521 229.398 39.3521 229.398C39.3521 229.398 39.1206 227.892 39.8206 227.373C39.9597 227.235 40.127 227.128 40.3109 227.061C40.4948 226.993 40.6911 226.966 40.8865 226.981C41.0818 226.996 41.2716 227.053 41.4431 227.147C41.6146 227.242 41.7637 227.373 41.8803 227.53C41.9969 227.687 42.0783 227.868 42.1189 228.059C42.1594 228.251 42.1583 228.449 42.1155 228.64C42.0728 228.831 41.9893 229.011 41.8709 229.167C41.7525 229.323 41.602 229.452 41.4295 229.544Z" fill="#262626"/>
<path d="M39.4367 231.801C39.8432 231.022 38.9681 229.77 38.9681 229.77C38.9681 229.77 37.444 229.77 37.0376 230.548C36.9178 230.707 36.8342 230.89 36.7924 231.085C36.7506 231.279 36.7516 231.481 36.7954 231.675C36.8393 231.869 36.9248 232.051 37.0462 232.209C37.1676 232.366 37.322 232.496 37.4984 232.588C37.6749 232.68 37.8693 232.732 38.0682 232.742C38.267 232.751 38.4655 232.717 38.6499 232.643C38.8343 232.568 39.0003 232.454 39.1361 232.308C39.272 232.163 39.3746 231.99 39.4367 231.801Z" fill="#262626"/>
<path d="M43.9923 241.012C44.4947 240.296 46.0075 240.493 46.0075 240.493C46.0075 240.493 46.7076 241.847 46.2108 242.563C46.1245 242.742 46.0003 242.9 45.8468 243.027C45.6933 243.153 45.5142 243.244 45.3219 243.295C45.1295 243.345 44.9285 243.353 44.7328 243.318C44.5371 243.282 44.3513 243.205 44.1884 243.091C44.0255 242.978 43.8893 242.83 43.7893 242.658C43.6893 242.486 43.6278 242.295 43.6092 242.097C43.5905 241.899 43.6151 241.7 43.6813 241.512C43.7474 241.325 43.8536 241.154 43.9923 241.012Z" fill="#262626"/>
<path d="M45.9624 237.814C46.5608 238.451 46.0583 239.895 46.0583 239.895C46.0583 239.895 44.585 240.301 43.9866 239.664C43.8291 239.543 43.6998 239.389 43.6078 239.213C43.5157 239.036 43.463 238.842 43.4534 238.644C43.4438 238.446 43.4775 238.248 43.5521 238.063C43.6267 237.879 43.7405 237.714 43.8856 237.578C44.0307 237.442 44.2035 237.339 44.3922 237.277C44.581 237.214 44.781 237.193 44.9785 237.216C45.1761 237.238 45.3664 237.303 45.5363 237.407C45.7061 237.51 45.8516 237.649 45.9624 237.814Z" fill="#262626"/>
<path d="M48.401 239.517C47.5882 239.207 46.4422 240.217 46.4422 240.217C46.4422 240.217 46.6172 241.734 47.4358 242.044C47.6077 242.144 47.7994 242.206 47.9975 242.225C48.1956 242.244 48.3956 242.219 48.5832 242.153C48.7709 242.087 48.942 241.981 49.0845 241.842C49.227 241.703 49.3375 241.535 49.4085 241.349C49.4795 241.163 49.5092 240.964 49.4955 240.766C49.4818 240.567 49.425 240.374 49.3291 240.2C49.2333 240.026 49.1006 239.874 48.9403 239.757C48.7801 239.639 48.5961 239.557 48.401 239.517Z" fill="#262626"/>
<path d="M60.5889 234.412C59.7195 234.311 59.172 232.889 59.172 232.889C59.172 232.889 60.0357 231.626 60.8994 231.727C61.0986 231.717 61.2977 231.75 61.4829 231.824C61.6681 231.898 61.8348 232.012 61.9715 232.157C62.1081 232.303 62.2114 232.476 62.2741 232.665C62.3368 232.855 62.3574 233.055 62.3345 233.253C62.3116 233.452 62.2458 233.642 62.1416 233.812C62.0373 233.982 61.8972 234.127 61.731 234.238C61.5648 234.348 61.3764 234.421 61.1792 234.451C60.9819 234.481 60.7805 234.468 60.5889 234.412Z" fill="#262626"/>
<path d="M56.8406 234.198C57.1172 233.369 58.6244 233.132 58.6244 233.132C58.6244 233.132 59.6801 234.26 59.4035 235.055C59.3692 235.248 59.2935 235.432 59.1818 235.593C59.07 235.755 58.9248 235.89 58.756 235.99C58.5872 236.09 58.3987 236.153 58.2035 236.174C58.0083 236.195 57.8109 236.173 57.6247 236.111C57.4385 236.049 57.268 235.947 57.1247 235.813C56.9814 235.679 56.8686 235.515 56.7942 235.334C56.7198 235.152 56.6854 234.957 56.6934 234.761C56.7014 234.565 56.7517 234.373 56.8406 234.198Z" fill="#262626"/>
<path d="M57.1793 231.237C57.2922 232.105 58.726 232.63 58.726 232.63C58.726 232.63 59.9736 231.755 59.855 230.887C59.8577 230.691 59.8182 230.497 59.7393 230.318C59.6603 230.139 59.5437 229.979 59.3973 229.849C59.251 229.718 59.0785 229.621 58.8913 229.564C58.704 229.506 58.5065 229.489 58.3123 229.515C58.118 229.54 57.9314 229.607 57.7653 229.71C57.5991 229.814 57.4573 229.952 57.3493 230.116C57.2413 230.279 57.1698 230.464 57.1394 230.657C57.1091 230.85 57.1208 231.048 57.1736 231.237H57.1793Z" fill="#262626"/>
<path d="M61.8027 218.827C60.939 218.725 60.3914 217.304 60.3914 217.304C60.3914 217.304 61.2493 216.04 62.1187 216.142C62.3178 216.132 62.5167 216.166 62.7015 216.241C62.8863 216.315 63.0526 216.43 63.1887 216.575C63.3248 216.721 63.4275 216.894 63.4897 217.083C63.5519 217.273 63.572 217.473 63.5487 217.671C63.5254 217.869 63.4592 218.059 63.3548 218.229C63.2503 218.399 63.1102 218.544 62.9439 218.654C62.7777 218.764 62.5895 218.836 62.3924 218.866C62.1953 218.896 61.9941 218.883 61.8027 218.827Z" fill="#262626"/>
<path d="M58.0655 218.624C58.3421 217.8 59.8493 217.558 59.8493 217.558C59.8493 217.558 60.9106 218.686 60.6284 219.487C60.5929 219.679 60.5163 219.862 60.404 220.022C60.2917 220.182 60.1462 220.317 59.9775 220.416C59.8087 220.515 59.6205 220.577 59.4258 220.597C59.231 220.617 59.0341 220.595 58.8486 220.533C58.663 220.47 58.4932 220.369 58.3504 220.235C58.2075 220.101 58.0951 219.938 58.0208 219.757C57.9466 219.576 57.9121 219.381 57.9198 219.186C57.9275 218.99 57.9772 218.799 58.0655 218.624Z" fill="#262626"/>
<path d="M58.393 215.674C58.5059 216.537 59.9398 217.061 59.9398 217.061C59.9398 217.061 61.193 216.187 61.0688 215.318C61.0707 215.123 61.0305 214.929 60.951 214.751C60.8715 214.572 60.7545 214.412 60.6079 214.283C60.4614 214.153 60.2886 214.057 60.1014 214C59.9143 213.943 59.7171 213.926 59.5232 213.952C59.3292 213.978 59.1429 214.045 58.9771 214.149C58.8113 214.252 58.6698 214.391 58.5621 214.554C58.4544 214.717 58.3831 214.902 58.3529 215.095C58.3228 215.288 58.3345 215.486 58.3874 215.674H58.393Z" fill="#262626"/>
<path d="M62.6381 245.902C61.8252 246.224 60.6736 245.226 60.6736 245.226C60.6736 245.226 60.8373 243.708 61.6502 243.387C61.8205 243.29 62.0095 243.231 62.2045 243.214C62.3996 243.197 62.5959 243.222 62.7805 243.287C62.965 243.352 63.1334 243.457 63.2742 243.593C63.4149 243.729 63.5247 243.893 63.5962 244.075C63.6678 244.257 63.6992 244.453 63.6886 244.648C63.6779 244.843 63.6255 245.034 63.5346 245.207C63.4438 245.381 63.3167 245.532 63.162 245.652C63.0073 245.772 62.8287 245.858 62.6381 245.902Z" fill="#262626"/>
<path d="M59.2342 247.454C59.0874 246.591 60.301 245.671 60.301 245.671C60.301 245.671 61.7519 246.139 61.8986 247.002C61.9596 247.189 61.9796 247.386 61.9572 247.581C61.9349 247.776 61.8707 247.964 61.7691 248.132C61.6675 248.3 61.5309 248.444 61.3686 248.555C61.2062 248.665 61.0218 248.739 60.8282 248.772C60.6346 248.805 60.4361 248.795 60.2464 248.745C60.0567 248.694 59.8802 248.603 59.7289 248.478C59.5776 248.353 59.4552 248.196 59.3698 248.02C59.2844 247.843 59.2381 247.65 59.2342 247.454Z" fill="#262626"/>
<path d="M58.1389 244.69C58.6469 245.4 60.1599 245.186 60.1599 245.186C60.1599 245.186 60.8486 243.827 60.3405 243.116C60.2526 242.938 60.1269 242.78 59.9721 242.655C59.8173 242.53 59.6372 242.44 59.4442 242.392C59.2511 242.344 59.0498 242.338 58.8543 242.375C58.6587 242.412 58.4736 242.491 58.3117 242.607C58.1498 242.722 58.0151 242.872 57.9168 243.045C57.8186 243.218 57.7592 243.41 57.7428 243.608C57.7263 243.806 57.7532 244.006 57.8216 244.193C57.89 244.379 57.9983 244.549 58.1389 244.69Z" fill="#262626"/>
<path d="M51.8559 257.957C52.7196 258.092 53.2163 259.536 53.2163 259.536C53.2163 259.536 52.3131 260.76 51.4494 260.63C51.2503 260.633 51.053 260.593 50.8712 260.511C50.6893 260.43 50.5274 260.311 50.3965 260.16C50.2656 260.01 50.169 259.834 50.1134 259.643C50.0578 259.452 50.0444 259.251 50.0743 259.054C50.1042 258.857 50.1766 258.669 50.2865 258.503C50.3964 258.337 50.5412 258.197 50.7107 258.093C50.8803 257.989 51.0705 257.922 51.2682 257.899C51.466 257.875 51.6665 257.895 51.8559 257.957Z" fill="#262626"/>
<path d="M55.593 258.312C55.2826 259.13 53.7695 259.316 53.7695 259.316C53.7695 259.316 52.7534 258.188 53.0582 257.364C53.0965 257.169 53.1769 256.984 53.2938 256.823C53.4107 256.662 53.5612 256.528 53.7351 256.431C53.9089 256.334 54.1019 256.276 54.3006 256.261C54.4992 256.246 54.6988 256.274 54.8853 256.344C55.0719 256.413 55.241 256.523 55.3809 256.665C55.5209 256.806 55.6282 256.977 55.6956 257.164C55.7629 257.351 55.7887 257.551 55.771 257.749C55.7532 257.948 55.6925 258.14 55.593 258.312Z" fill="#262626"/>
<path d="M55.1415 261.251C55.0624 260.382 53.6511 259.801 53.6511 259.801C53.6511 259.801 52.3697 260.63 52.4487 261.494C52.4387 261.689 52.4707 261.884 52.5429 262.066C52.615 262.248 52.7254 262.413 52.8668 262.548C53.0081 262.684 53.1769 262.788 53.3618 262.852C53.5467 262.917 53.7434 262.941 53.9384 262.923C54.1335 262.905 54.3225 262.845 54.4925 262.748C54.6624 262.651 54.8095 262.518 54.9236 262.359C55.0377 262.2 55.1162 262.018 55.1537 261.826C55.1913 261.634 55.1872 261.436 55.1415 261.245V261.251Z" fill="#262626"/>
<path d="M51.4325 218.105C52.0986 218.669 51.7712 220.158 51.7712 220.158C51.7712 220.158 50.3599 220.722 49.6881 220.158C49.5176 220.056 49.3714 219.918 49.2595 219.754C49.1475 219.59 49.0726 219.404 49.0398 219.208C49.007 219.012 49.0171 218.812 49.0696 218.62C49.122 218.429 49.2154 218.251 49.3434 218.099C49.4714 217.947 49.6307 217.825 49.8106 217.741C49.9905 217.657 50.1866 217.612 50.3853 217.611C50.584 217.61 50.7805 217.652 50.9613 217.735C51.1421 217.817 51.3029 217.938 51.4325 218.088V218.105Z" fill="#262626"/>
<path d="M54.4415 220.35C53.7528 220.914 52.364 220.26 52.364 220.26C52.364 220.26 52.0873 218.759 52.776 218.223C52.9112 218.081 53.0756 217.969 53.2579 217.896C53.4401 217.823 53.6359 217.79 53.8322 217.799C54.0284 217.808 54.2204 217.86 54.3949 217.95C54.5694 218.04 54.7224 218.167 54.8435 218.321C54.9645 218.476 55.0508 218.655 55.0964 218.846C55.142 219.037 55.1458 219.235 55.1077 219.428C55.0695 219.62 54.9901 219.802 54.8752 219.961C54.7602 220.121 54.6123 220.253 54.4415 220.35Z" fill="#262626"/>
<path d="M52.5277 222.629C52.9115 221.845 52.0083 220.615 52.0083 220.615C52.0083 220.615 50.4785 220.66 50.0946 221.444C49.9792 221.606 49.9006 221.792 49.8641 221.987C49.8277 222.183 49.8344 222.384 49.8836 222.577C49.9328 222.77 50.0234 222.95 50.1492 223.104C50.2749 223.258 50.4329 223.383 50.612 223.471C50.791 223.558 50.9869 223.605 51.186 223.609C51.3851 223.613 51.5827 223.573 51.765 223.493C51.9473 223.413 52.11 223.294 52.2417 223.145C52.3734 222.996 52.4709 222.82 52.5277 222.629Z" fill="#262626"/>
<path d="M22.7103 152.136C23.382 152.701 23.0489 154.19 23.0489 154.19C23.0489 154.19 21.6377 154.754 20.9715 154.19C20.8053 154.086 20.6631 153.949 20.5548 153.786C20.4464 153.623 20.3743 153.439 20.3435 153.245C20.3126 153.052 20.3238 152.855 20.376 152.666C20.4282 152.478 20.5203 152.303 20.6461 152.153C20.772 152.003 20.9286 151.882 21.1054 151.798C21.2821 151.714 21.4748 151.669 21.6706 151.665C21.8663 151.662 22.0604 151.701 22.2398 151.779C22.4191 151.858 22.5797 151.974 22.7103 152.119V152.136Z" fill="#262626"/>
<path d="M25.7248 154.381C25.0361 154.946 23.6417 154.291 23.6417 154.291C23.6417 154.291 23.3708 152.791 24.0595 152.249C24.1943 152.103 24.3595 151.988 24.5434 151.911C24.7273 151.835 24.9255 151.8 25.1244 151.808C25.3233 151.816 25.5182 151.868 25.6953 151.958C25.8723 152.049 26.0274 152.178 26.1499 152.334C26.2724 152.491 26.3593 152.673 26.4045 152.867C26.4497 153.06 26.4521 153.262 26.4116 153.456C26.3712 153.651 26.2888 153.835 26.1702 153.994C26.0516 154.154 25.8996 154.286 25.7248 154.381Z" fill="#262626"/>
<path d="M23.8055 156.66C24.1894 155.871 23.286 154.647 23.286 154.647C23.286 154.647 21.7619 154.686 21.3781 155.47C21.2673 155.632 21.1927 155.815 21.1592 156.008C21.1257 156.201 21.1343 156.399 21.1842 156.588C21.234 156.778 21.3239 156.954 21.4481 157.106C21.5722 157.257 21.7275 157.38 21.9034 157.467C22.0794 157.553 22.2719 157.6 22.4678 157.606C22.6637 157.611 22.8585 157.574 23.0389 157.498C23.2194 157.421 23.3812 157.307 23.5134 157.163C23.6457 157.018 23.7453 156.847 23.8055 156.66Z" fill="#262626"/>
<path d="M27.0175 164.191C27.4804 163.452 29.0046 163.565 29.0046 163.565C29.0046 163.565 29.778 164.879 29.3151 165.618C29.2395 165.802 29.1244 165.968 28.9781 166.103C28.8318 166.239 28.6577 166.341 28.4679 166.402C28.2782 166.463 28.0773 166.483 27.8793 166.459C27.6813 166.434 27.4909 166.367 27.3215 166.262C27.1522 166.157 27.0078 166.016 26.8984 165.849C26.7891 165.683 26.7175 165.494 26.6885 165.297C26.6596 165.1 26.674 164.899 26.7309 164.708C26.7877 164.516 26.8855 164.34 27.0175 164.191Z" fill="#262626"/>
<path d="M28.8013 160.897C29.4336 161.5 29.0103 162.961 29.0103 162.961C29.0103 162.961 27.5595 163.452 26.9273 162.843C26.7675 162.729 26.634 162.582 26.5361 162.412C26.4383 162.242 26.3783 162.053 26.3601 161.857C26.342 161.662 26.3661 161.465 26.431 161.28C26.4958 161.095 26.5999 160.926 26.736 160.785C26.8721 160.643 27.0371 160.533 27.2197 160.461C27.4023 160.389 27.5983 160.358 27.7943 160.368C27.9903 160.379 28.1817 160.431 28.3555 160.523C28.5293 160.614 28.6813 160.741 28.8013 160.897Z" fill="#262626"/>
<path d="M31.3303 162.465C30.5004 162.194 29.411 163.266 29.411 163.266C29.411 163.266 29.6706 164.772 30.5004 165.037C30.6764 165.123 30.8687 165.17 31.0644 165.175C31.2601 165.18 31.4547 165.143 31.6348 165.066C31.815 164.99 31.9765 164.875 32.1085 164.731C32.2406 164.586 32.34 164.415 32.4 164.229C32.4601 164.043 32.4794 163.846 32.4567 163.652C32.4339 163.457 32.3697 163.27 32.2683 163.103C32.1668 162.935 32.0305 162.792 31.8687 162.682C31.7069 162.572 31.5232 162.498 31.3303 162.465Z" fill="#262626"/>
<path d="M41.1811 159.983C40.7803 160.756 39.2504 160.761 39.2504 160.761C39.2504 160.761 38.3755 159.515 38.7763 158.736C38.8388 158.548 38.9413 158.375 39.0769 158.231C39.2125 158.086 39.3781 157.972 39.5619 157.898C39.7457 157.823 39.9435 157.789 40.1417 157.798C40.3399 157.807 40.5339 157.859 40.7101 157.951C40.8862 158.042 41.0405 158.171 41.1621 158.327C41.2838 158.484 41.37 158.665 41.4148 158.858C41.4595 159.051 41.4618 159.252 41.4215 159.446C41.3812 159.64 41.2992 159.823 41.1811 159.983Z" fill="#262626"/>
<path d="M39.6512 163.412C38.9738 162.848 39.2843 161.365 39.2843 161.365C39.2843 161.365 40.6899 160.767 41.3617 161.32C41.5351 161.417 41.6853 161.551 41.8016 161.712C41.9179 161.873 41.9976 162.057 42.0351 162.253C42.0726 162.448 42.0671 162.649 42.0188 162.841C41.9706 163.034 41.8807 163.214 41.7557 163.369C41.6307 163.523 41.4735 163.648 41.295 163.736C41.1165 163.823 40.921 163.871 40.7222 163.875C40.5234 163.879 40.3261 163.84 40.1441 163.76C39.962 163.68 39.7996 163.561 39.6682 163.412H39.6512Z" fill="#262626"/>
<path d="M37.0093 162.047C37.8561 162.245 38.8609 161.094 38.8609 161.094C38.8609 161.094 38.4827 159.616 37.6303 159.402C37.4467 159.326 37.2488 159.291 37.0504 159.299C36.8519 159.307 36.6575 159.359 36.4808 159.449C36.304 159.54 36.1491 159.668 36.0266 159.824C35.9042 159.98 35.8172 160.161 35.7717 160.354C35.7261 160.548 35.7231 160.748 35.7629 160.943C35.8026 161.137 35.8841 161.321 36.0018 161.481C36.1195 161.641 36.2706 161.773 36.4445 161.869C36.6185 161.965 36.8111 162.022 37.0093 162.036V162.047Z" fill="#262626"/>
<path d="M52.3526 167.412C51.6696 167.976 50.2753 167.344 50.2753 167.344C50.2753 167.344 49.9817 165.843 50.6648 165.302C50.7989 165.16 50.9619 165.049 51.1427 164.976C51.3235 164.902 51.518 164.868 51.713 164.876C51.908 164.884 52.099 164.934 52.2733 165.022C52.4475 165.11 52.6008 165.234 52.723 165.386C52.8451 165.538 52.9331 165.714 52.9812 165.903C53.0294 166.093 53.0365 166.29 53.0019 166.482C52.9674 166.674 52.892 166.856 52.781 167.016C52.67 167.177 52.5258 167.311 52.3583 167.412H52.3526Z" fill="#262626"/>
<path d="M49.5639 169.922C49.1688 169.143 50.0608 167.902 50.0608 167.902C50.0608 167.902 51.5849 167.902 51.9801 168.709C52.0923 168.87 52.1687 169.052 52.204 169.245C52.2393 169.438 52.2326 169.636 52.1846 169.825C52.1365 170.015 52.0482 170.193 51.9255 170.345C51.8028 170.498 51.6486 170.623 51.4734 170.711C51.2983 170.799 51.1063 170.848 50.9104 170.855C50.7146 170.862 50.5193 170.827 50.3382 170.752C50.1571 170.677 49.9943 170.565 49.8607 170.421C49.7271 170.278 49.6258 170.108 49.5639 169.922Z" fill="#262626"/>
<path d="M47.701 167.603C48.3954 168.134 49.7785 167.485 49.7785 167.485C49.7785 167.485 50.0325 165.979 49.3382 165.454C49.201 165.314 49.0352 165.205 48.8521 165.134C48.669 165.064 48.4727 165.034 48.2768 165.046C48.0809 165.058 47.89 165.112 47.7169 165.204C47.5438 165.297 47.3927 165.425 47.2738 165.581C47.1549 165.737 47.0711 165.917 47.0281 166.109C46.985 166.3 46.9836 166.498 47.0242 166.69C47.0647 166.882 47.1462 167.063 47.263 167.22C47.3798 167.378 47.5292 167.509 47.701 167.603Z" fill="#262626"/>
<path d="M61.1478 184.475C60.4647 185.039 59.0647 184.407 59.0647 184.407C59.0647 184.407 58.7768 182.907 59.4542 182.365C59.5871 182.217 59.7507 182.099 59.9336 182.021C60.1165 181.942 60.3143 181.904 60.5134 181.91C60.7124 181.915 60.9079 181.964 61.0863 182.052C61.2646 182.141 61.4215 182.267 61.5461 182.422C61.6706 182.577 61.76 182.758 61.8078 182.951C61.8555 183.144 61.8606 183.345 61.8227 183.541C61.7848 183.736 61.7048 183.921 61.5882 184.082C61.4717 184.243 61.3214 184.377 61.1478 184.475Z" fill="#262626"/>
<path d="M58.3592 186.985C57.964 186.207 58.8502 184.966 58.8502 184.966C58.8502 184.966 60.3801 184.966 60.7753 185.772C60.8875 185.933 60.9639 186.116 60.9992 186.308C61.0345 186.501 61.0279 186.699 60.9798 186.889C60.9317 187.079 60.8434 187.256 60.7207 187.409C60.598 187.561 60.4438 187.686 60.2686 187.774C60.0935 187.862 59.9014 187.911 59.7055 187.918C59.5096 187.925 59.3146 187.89 59.1334 187.816C58.9523 187.741 58.7893 187.628 58.6557 187.484C58.5221 187.341 58.421 187.171 58.3592 186.985Z" fill="#262626"/>
<path d="M56.4961 184.667C57.1905 185.197 58.5735 184.548 58.5735 184.548C58.5735 184.548 58.8277 183.042 58.1333 182.518C57.9962 182.377 57.8304 182.268 57.6472 182.198C57.4641 182.127 57.2678 182.097 57.072 182.109C56.8761 182.121 56.6851 182.175 56.512 182.267C56.3389 182.36 56.1878 182.488 56.0689 182.645C55.95 182.801 55.8662 182.98 55.8232 183.172C55.7801 183.363 55.7788 183.561 55.8193 183.753C55.8599 183.945 55.9414 184.126 56.0582 184.284C56.1749 184.441 56.3243 184.572 56.4961 184.667Z" fill="#262626"/>
<path d="M39.6005 171.49C40.165 170.819 41.6552 171.146 41.6552 171.146C41.6552 171.146 42.2197 172.55 41.6552 173.222C41.5547 173.394 41.4178 173.542 41.2542 173.656C41.0905 173.769 40.9039 173.846 40.7074 173.881C40.511 173.915 40.3094 173.906 40.1167 173.855C39.924 173.804 39.7449 173.711 39.5918 173.583C39.4386 173.455 39.3151 173.296 39.23 173.116C39.1449 172.936 39.1001 172.739 39.0988 172.54C39.0975 172.34 39.1397 172.143 39.2224 171.962C39.3052 171.781 39.4264 171.619 39.5779 171.49H39.6005Z" fill="#262626"/>
<path d="M41.8359 168.472C42.4004 169.16 41.7513 170.553 41.7513 170.553C41.7513 170.553 40.2496 170.83 39.7133 170.147C39.5699 170.013 39.4571 169.849 39.3827 169.667C39.3082 169.485 39.2739 169.289 39.2818 169.093C39.2897 168.897 39.3397 168.704 39.4286 168.529C39.5175 168.353 39.6431 168.199 39.7968 168.077C39.9506 167.954 40.1289 167.866 40.3197 167.818C40.5106 167.771 40.7094 167.765 40.9028 167.8C41.0962 167.836 41.2796 167.913 41.4406 168.026C41.6016 168.139 41.7364 168.285 41.8359 168.455V168.472Z" fill="#262626"/>
<path d="M44.1222 170.379C43.3318 169.995 42.1068 170.909 42.1068 170.909C42.1068 170.909 42.1576 172.432 42.9423 172.81C43.1045 172.92 43.2885 172.993 43.4817 173.026C43.6749 173.058 43.8729 173.049 44.0622 172.998C44.2515 172.947 44.4276 172.857 44.5786 172.732C44.7297 172.607 44.8521 172.451 44.9376 172.275C45.0231 172.099 45.0697 171.906 45.0742 171.711C45.0787 171.515 45.0409 171.321 44.9635 171.141C44.8862 170.961 44.7711 170.8 44.6259 170.668C44.4807 170.537 44.3089 170.438 44.1222 170.379Z" fill="#262626"/>
<path d="M54.6785 197.488C55.243 196.822 56.7333 197.144 56.7333 197.144C56.7333 197.144 57.2978 198.554 56.7333 199.225C56.6316 199.396 56.4941 199.542 56.3303 199.654C56.1665 199.766 55.9804 199.841 55.7847 199.874C55.589 199.907 55.3885 199.898 55.1969 199.846C55.0053 199.794 54.8272 199.701 54.675 199.574C54.5227 199.447 54.4001 199.288 54.3152 199.109C54.2304 198.929 54.1856 198.734 54.1838 198.535C54.182 198.337 54.2232 198.141 54.3048 197.96C54.3863 197.779 54.5061 197.618 54.6559 197.488H54.6785Z" fill="#262626"/>
<path d="M56.9365 194.47C57.501 195.158 56.8519 196.552 56.8519 196.552C56.8519 196.552 55.3502 196.834 54.814 196.146C54.6706 196.011 54.5578 195.847 54.4833 195.665C54.4089 195.483 54.3745 195.288 54.3824 195.091C54.3904 194.895 54.4403 194.702 54.5292 194.527C54.6181 194.352 54.7437 194.197 54.8975 194.075C55.0512 193.952 55.2295 193.864 55.4204 193.817C55.6112 193.769 55.8101 193.763 56.0035 193.799C56.1969 193.835 56.3803 193.912 56.5413 194.025C56.7022 194.137 56.8371 194.284 56.9365 194.453V194.47Z" fill="#262626"/>
<path d="M59.1946 196.377C58.4099 195.999 57.1792 196.907 57.1792 196.907C57.1792 196.907 57.23 198.43 58.0203 198.808C58.1827 198.919 58.3672 198.993 58.561 199.027C58.7548 199.06 58.9536 199.051 59.1436 199C59.3336 198.949 59.5104 198.858 59.6619 198.733C59.8135 198.608 59.9361 198.451 60.0216 198.274C60.1071 198.097 60.1534 197.904 60.1572 197.708C60.161 197.511 60.1223 197.316 60.0438 197.136C59.9653 196.956 59.8487 196.795 59.7021 196.664C59.5556 196.533 59.3825 196.435 59.1946 196.377Z" fill="#262626"/>
<path d="M46.9391 179.596C47.7915 179.404 48.785 180.56 48.785 180.56C48.785 180.56 48.3956 182.038 47.5431 182.252C47.3588 182.329 47.1599 182.364 46.9604 182.356C46.761 182.348 46.5657 182.296 46.3882 182.205C46.2108 182.114 46.0554 181.985 45.933 181.827C45.8106 181.67 45.724 181.487 45.6794 181.293C45.6348 181.098 45.6333 180.896 45.6749 180.701C45.7164 180.506 45.8001 180.323 45.92 180.163C46.04 180.004 46.1933 179.872 46.3693 179.778C46.5453 179.684 46.7398 179.629 46.9391 179.618V179.596Z" fill="#262626"/>
<path d="M50.5462 178.546C50.5462 179.415 49.2197 180.148 49.2197 180.148C49.2197 180.148 47.8535 179.466 47.8422 178.592C47.8111 178.398 47.8219 178.201 47.8739 178.012C47.9259 177.823 48.018 177.648 48.1437 177.498C48.2695 177.348 48.4261 177.227 48.6028 177.143C48.7796 177.058 48.9723 177.013 49.1682 177.01C49.364 177.006 49.5583 177.045 49.7378 177.124C49.9172 177.202 50.0777 177.318 50.2084 177.464C50.3391 177.609 50.4369 177.781 50.4952 177.968C50.5535 178.155 50.5709 178.352 50.5462 178.546Z" fill="#262626"/>
<path d="M51.2124 181.44C50.8173 180.667 49.2874 180.645 49.2874 180.645C49.2874 180.645 48.4068 181.891 48.802 182.67C48.8622 182.859 48.9631 183.034 49.0976 183.18C49.2321 183.327 49.3969 183.443 49.5807 183.52C49.7644 183.597 49.9627 183.632 50.1617 183.625C50.3607 183.617 50.5557 183.566 50.7331 183.476C50.9105 183.385 51.066 183.257 51.1889 183.101C51.3117 182.944 51.3991 182.763 51.4447 182.569C51.4903 182.375 51.4932 182.174 51.4531 181.979C51.413 181.784 51.3308 181.6 51.2124 181.44Z" fill="#262626"/>
<path d="M85.9579 198.187C85.145 198.515 83.9822 197.527 83.9822 197.527C83.9822 197.527 84.1347 196.01 84.9476 195.683C85.1169 195.584 85.3057 195.522 85.5011 195.502C85.6965 195.482 85.8939 195.505 86.0798 195.568C86.2657 195.631 86.4358 195.734 86.5784 195.869C86.7211 196.004 86.8328 196.168 86.9063 196.35C86.9797 196.532 87.0131 196.727 87.004 196.923C86.9949 197.119 86.9435 197.311 86.8535 197.486C86.7635 197.66 86.6369 197.813 86.4824 197.934C86.3278 198.055 86.1489 198.142 85.9579 198.187Z" fill="#262626"/>
<path d="M82.5652 199.795C82.4128 198.938 83.6153 198.001 83.6153 198.001C83.6153 198.001 85.0718 198.464 85.2242 199.321C85.2877 199.507 85.31 199.705 85.2899 199.901C85.2698 200.097 85.2076 200.286 85.1076 200.455C85.0076 200.624 84.8721 200.77 84.7104 200.883C84.5487 200.995 84.3646 201.071 84.1708 201.105C83.977 201.14 83.778 201.132 83.5874 201.083C83.3969 201.033 83.2194 200.943 83.0669 200.819C82.9144 200.694 82.7906 200.538 82.704 200.362C82.6174 200.185 82.5701 199.992 82.5652 199.795Z" fill="#262626"/>
<path d="M81.4475 197.042C81.9612 197.748 83.4741 197.522 83.4741 197.522C83.4741 197.522 84.1459 196.157 83.6322 195.452C83.541 195.278 83.4134 195.126 83.2582 195.006C83.1029 194.886 82.9236 194.801 82.7325 194.757C82.5414 194.713 82.3429 194.71 82.1507 194.749C81.9584 194.788 81.7768 194.868 81.6183 194.983C81.4597 195.099 81.3278 195.247 81.2317 195.418C81.1356 195.589 81.0775 195.778 81.0613 195.974C81.0451 196.169 81.0712 196.366 81.1378 196.55C81.2045 196.735 81.3101 196.902 81.4475 197.042Z" fill="#262626"/>
<path d="M78.3879 208.149C77.5468 207.912 77.225 206.423 77.225 206.423C77.225 206.423 78.275 205.295 79.1161 205.543C79.3137 205.565 79.5042 205.63 79.6743 205.732C79.8444 205.835 79.9902 205.974 80.1014 206.138C80.2127 206.303 80.2868 206.49 80.3186 206.686C80.3505 206.882 80.3393 207.083 80.2858 207.274C80.2324 207.465 80.1378 207.643 80.0089 207.794C79.8801 207.945 79.7198 208.067 79.5393 208.15C79.3587 208.233 79.1623 208.276 78.9634 208.276C78.7646 208.276 78.5683 208.232 78.3879 208.149Z" fill="#262626"/>
<path d="M74.7411 207.354C75.1419 206.581 76.6661 206.575 76.6661 206.575C76.6661 206.575 77.5411 207.827 77.1403 208.6C77.0757 208.785 76.972 208.954 76.8364 209.095C76.7008 209.236 76.5364 209.347 76.3543 209.419C76.1722 209.491 75.9767 209.523 75.781 209.513C75.5853 209.503 75.3942 209.452 75.2203 209.361C75.0465 209.271 74.8942 209.144 74.7737 208.99C74.6531 208.836 74.5672 208.657 74.5217 208.467C74.4763 208.276 74.4723 208.078 74.5102 207.886C74.548 207.694 74.6268 207.513 74.7411 207.354Z" fill="#262626"/>
<path d="M75.5654 204.488C75.5654 205.362 76.8751 206.107 76.8751 206.107C76.8751 206.107 78.2468 205.436 78.2694 204.561C78.3081 204.366 78.3036 204.164 78.2562 203.971C78.2088 203.777 78.1196 203.596 77.995 203.44C77.8704 203.284 77.7135 203.158 77.5348 203.069C77.3562 202.98 77.1603 202.931 76.9608 202.926C76.7614 202.92 76.5631 202.959 76.3799 203.038C76.1967 203.117 76.033 203.235 75.9002 203.383C75.7673 203.532 75.6685 203.708 75.6107 203.899C75.5529 204.09 75.5374 204.291 75.5654 204.488Z" fill="#262626"/>
<path d="M72.4436 198.52C72.3872 199.389 70.9984 200.015 70.9984 200.015C70.9984 200.015 69.6888 199.231 69.7396 198.357C69.7201 198.159 69.7437 197.96 69.8088 197.773C69.8739 197.585 69.9789 197.414 70.1165 197.271C70.2542 197.128 70.4213 197.017 70.6062 196.945C70.7911 196.873 70.9895 196.842 71.1877 196.854C71.3858 196.866 71.579 196.921 71.7538 197.014C71.9287 197.108 72.0811 197.239 72.2005 197.397C72.3199 197.556 72.4036 197.738 72.4456 197.932C72.4875 198.126 72.4868 198.327 72.4436 198.52Z" fill="#262626"/>
<path d="M72.4379 202.243C71.5968 202.012 71.2694 200.551 71.2694 200.551C71.2694 200.551 72.3138 199.423 73.1549 199.665C73.3535 199.685 73.5453 199.748 73.7171 199.85C73.8888 199.952 74.0362 200.089 74.1491 200.254C74.262 200.418 74.3377 200.605 74.3707 200.802C74.4038 200.999 74.3934 201.2 74.3405 201.393C74.2876 201.585 74.1934 201.763 74.0644 201.915C73.9353 202.068 73.7747 202.19 73.5936 202.273C73.4124 202.357 73.2151 202.4 73.0155 202.4C72.816 202.4 72.6188 202.356 72.4379 202.271V202.243Z" fill="#262626"/>
<path d="M69.4686 202.068C70.3267 201.91 70.7727 200.449 70.7727 200.449C70.7727 200.449 69.8243 199.254 68.9663 199.411C68.767 199.416 68.571 199.463 68.392 199.551C68.213 199.638 68.0553 199.764 67.9297 199.918C67.8042 200.073 67.7138 200.253 67.665 200.446C67.6162 200.639 67.6101 200.841 67.6471 201.036C67.6841 201.232 67.7633 201.417 67.8793 201.579C67.9952 201.741 68.1451 201.876 68.3185 201.974C68.4919 202.073 68.6845 202.132 68.8832 202.148C69.0818 202.164 69.2816 202.137 69.4686 202.068Z" fill="#262626"/>
<path d="M35.7787 272.899H79.7766C79.9284 272.899 80.0784 272.933 80.2154 272.999C80.3524 273.064 80.4731 273.159 80.5688 273.276C80.6645 273.394 80.7328 273.532 80.7686 273.679C80.8044 273.827 80.8068 273.98 80.7758 274.129L80.183 276.865C80.133 277.091 80.0074 277.294 79.8269 277.439C79.6463 277.585 79.4215 277.665 79.1895 277.666H36.8118C36.6047 277.664 36.4027 277.601 36.2325 277.483C36.0623 277.365 35.9316 277.199 35.8576 277.006L34.8247 274.275C34.7674 274.121 34.7482 273.956 34.7687 273.793C34.7892 273.63 34.8489 273.474 34.9425 273.339C35.0362 273.204 35.1611 273.093 35.3066 273.017C35.4522 272.94 35.6142 272.9 35.7787 272.899Z" stroke="#262626" stroke-miterlimit="10"/>
<path d="M39.2673 281.964C39.7584 281.964 76.8412 277.666 76.8412 277.666H38.8213L39.2673 281.964Z" fill="#262626"/>
<path d="M361.964 315.109V46.2202C361.965 40.1923 360.777 34.2232 358.469 28.6539C356.161 23.0845 352.778 18.024 348.512 13.7613C344.247 9.49863 339.183 6.11719 333.609 3.81021C328.036 1.50323 322.062 0.315872 316.03 0.315872H266.042" stroke="#262626" stroke-miterlimit="10"/>
<path d="M217.218 13.724H322.358L286.416 2.66813C274.468 -1.0088 261.671 -0.886593 249.796 3.01785L217.218 13.724Z" fill="#262626"/>
<path d="M55.4463 224.265C137.041 244.91 257.857 325.273 388.982 191.915" stroke="#262626" stroke-miterlimit="10"/>
<path d="M276.943 107.118C290.505 107.118 301.499 96.132 301.499 82.5805C301.499 69.0289 290.505 58.0432 276.943 58.0432C263.381 58.0432 252.387 69.0289 252.387 82.5805C252.387 96.132 263.381 107.118 276.943 107.118Z" stroke="#262626" stroke-miterlimit="10"/>
<path d="M276.943 65.991V82.5805H292.337" stroke="#262626" stroke-miterlimit="10"/>
</g>
<defs>
<clipPath id="clip0_12:185">
<rect width="394" height="316" fill="white"/>
</clipPath>
</defs>
</svg>
