<svg width="1064" height="594" viewBox="0 0 1064 594" fill="none" xmlns="http://www.w3.org/2000/svg">
<g clip-path="url(#clip0_12:323)">
<path d="M810.832 234.397C810.832 234.397 791.036 248.388 787.09 246.095C783.143 243.802 780.306 230.739 780.306 230.739C778.127 231.048 776.437 231.602 774.309 230.996C772.31 229.979 775.844 221.141 775.47 214.803C775.096 208.465 773.252 200.117 775.264 196.239" stroke="#3C096C" stroke-width="1.56" stroke-miterlimit="10"/>
<path d="M831.93 235.119C827.778 231.261 824.043 226.978 820.788 222.339" stroke="#3C096C" stroke-width="1.56" stroke-miterlimit="10"/>
<path d="M799.638 243.698C799.638 243.698 810.458 256.336 810.38 261.232" stroke="#3C096C" stroke-width="1.56" stroke-miterlimit="10"/>
<path d="M827.558 230.803L810.406 258.784L831.634 234.861L827.558 230.803Z" fill="#3C096C"/>
<path d="M826.501 227.261C827.623 224.285 839.178 185.547 827.648 177.379C816.119 169.212 795.665 166.97 780.796 173.296C765.926 179.621 766.391 191.705 775.264 196.24C784.136 200.774 801.25 194.835 803.107 197.811C803.937 199.314 804.504 200.948 804.783 202.642C804.849 203.006 804.995 203.351 805.212 203.651C805.43 203.951 805.712 204.198 806.038 204.373C806.364 204.549 806.725 204.649 807.095 204.666C807.465 204.683 807.834 204.617 808.175 204.471C809.533 203.823 811.078 203.677 812.534 204.059C817.009 205.18 814.262 223.808 817.615 226.037C820.968 228.265 826.501 227.261 826.501 227.261Z" fill="#3C096C"/>
<path d="M842.093 591.424C841.52 543.205 821.943 497.155 787.606 463.26C753.27 429.364 706.942 410.355 658.668 410.355C610.394 410.355 564.066 429.364 529.729 463.26C495.393 497.155 475.816 543.205 475.243 591.424H842.093Z" fill="#9677D9"/>
<path d="M801.366 270.481L802.656 281.779C802.684 282.037 802.782 282.282 802.939 282.488C803.095 282.698 803.304 282.863 803.546 282.965C803.79 283.067 804.056 283.106 804.319 283.08C804.58 283.05 804.829 282.952 805.041 282.797L805.725 282.269L805.403 277.966C805.124 274.309 805.846 270.646 807.491 267.367C809.135 264.088 811.641 261.317 814.739 259.351L840.016 243.299C840.939 242.74 841.932 242.306 842.97 242.011L837.244 235.685C836.82 235.232 836.306 234.872 835.735 234.629C835.157 234.384 834.531 234.269 833.904 234.294C833.28 234.308 832.667 234.458 832.108 234.734C831.548 235.01 831.057 235.405 830.667 235.892L801.366 270.481Z" stroke="#3C096C" stroke-width="1.56" stroke-miterlimit="10"/>
<path d="M842.931 241.921C841.893 242.216 840.9 242.65 839.978 243.209L814.701 259.261C811.602 261.227 809.097 263.998 807.452 267.277C805.808 270.556 805.086 274.219 805.364 277.876L805.738 282.179" stroke="#3C096C" stroke-width="1.56" stroke-miterlimit="10"/>
<path d="M815.41 367.319L821.471 404.679" stroke="black" stroke-width="1.56" stroke-miterlimit="10"/>
<path d="M805.738 282.256L812.87 337.033" stroke="#3C096C" stroke-width="1.56" stroke-miterlimit="10"/>
<path d="M705.585 474.128L748.839 583.694H773.497L748.788 457.162C754.591 460.911 763.928 464.582 775.367 467.558C802.539 474.579 841.538 477.581 873.082 468.073C899.185 460.189 920.077 443.738 924.913 413.967C925.545 410.102 926.009 406.237 926.332 402.373C908.006 415.101 774.503 396.189 730.307 410.914C721.048 413.967 688.588 429.413 705.585 474.128Z" fill="#3C096C"/>
<path d="M926.383 402.347C926.589 402.192 926.783 402.063 926.963 401.909" stroke="black" stroke-width="1.56" stroke-miterlimit="10"/>
<path d="M926.383 402.347C913.899 326.546 877.145 265.573 853.299 244.304C851.918 243.048 850.241 242.162 848.425 241.728C846.612 241.304 844.72 241.353 842.931 241.869" stroke="#3C096C" stroke-width="1.56" stroke-miterlimit="10"/>
<path d="M32.0346 592.995H817.628" stroke="#3C096C" stroke-width="1.56" stroke-miterlimit="10"/>
<path d="M948.887 592.995H1064.03" stroke="#3C096C" stroke-width="1.56" stroke-miterlimit="10"/>
<path d="M775.406 467.584C802.591 474.605 841.667 477.607 873.108 468.086" stroke="black" stroke-width="1.56" stroke-miterlimit="10"/>
<path d="M781.235 476.872C806.572 482.549 828.96 485.387 848.399 485.387C880.266 485.387 904.459 477.787 921.676 462.573C964.028 425.072 956.393 349.206 948.32 268.858L947.585 261.309C947.333 259.309 946.308 257.487 944.73 256.231C943.152 254.974 941.145 254.384 939.138 254.584C937.132 254.787 935.285 255.763 933.989 257.305C932.694 258.847 932.052 260.834 932.2 262.842L932.986 270.481C940.646 346.707 947.881 418.914 911.449 451.133C901.712 459.764 889.01 465.432 873.134 468.202C841.59 477.709 802.591 474.643 775.432 467.687C775.208 468.67 775.182 469.687 775.355 470.68C775.528 471.672 775.896 472.621 776.437 473.471C777.526 475.192 779.25 476.413 781.235 476.872V476.872Z" stroke="#3C096C" stroke-width="1.56" stroke-miterlimit="10"/>
<path d="M817.628 592.969H948.887C938.183 585.729 912.778 580.628 883.258 580.628C853.738 580.628 828.332 585.729 817.628 592.969Z" stroke="#3C096C" stroke-width="1.56" stroke-miterlimit="10"/>
<path d="M872.438 483.429L883.258 580.641" stroke="#3C096C" stroke-width="1.56" stroke-miterlimit="10"/>
<path d="M674.672 340.665C674.672 340.665 645.475 354.952 647.396 355.532C650.143 356.537 660.087 352.388 660.087 352.388C660.087 352.388 664.458 356.562 666.702 356.021C669.537 355.368 672.279 354.364 674.866 353.033" stroke="#3C096C" stroke-width="1.56" stroke-miterlimit="10"/>
<path d="M775.406 592.969L773.561 583.72H751.947C741.63 583.72 731.545 587.919 722.569 592.969H775.406Z" stroke="#3C096C" stroke-miterlimit="10"/>
<path d="M748.839 583.72H773.497L748.788 457.188C754.591 460.937 763.928 464.608 775.367 467.584C802.539 474.605 841.538 477.607 873.083 468.099" stroke="#3C096C" stroke-width="1.56" stroke-miterlimit="10"/>
<path d="M926.383 402.347C915.421 409.973 863.191 406.212 813.553 405.194" stroke="#3C096C" stroke-width="1.56" stroke-miterlimit="10"/>
<path d="M775.418 467.584C802.591 474.605 841.59 477.607 873.134 468.099C899.236 460.215 920.128 443.764 924.964 413.993C925.596 410.128 926.061 406.263 926.383 402.398" stroke="#3C096C" stroke-width="1.56" stroke-miterlimit="10"/>
<path d="M748.852 583.746H773.574L748.852 457.188" stroke="#3C096C" stroke-width="1.56" stroke-miterlimit="10"/>
<path d="M468.963 360.762H696.042V375.68H468.963" stroke="#3C096C" stroke-width="1.16" stroke-miterlimit="10"/>
<path d="M674.105 375.641V593.588" stroke="#3C096C" stroke-width="1.16" stroke-miterlimit="10"/>
<path d="M828.835 273.702L812.831 337.033L682.681 339.48L680.695 356.601L823.948 367.654C827.135 367.909 830.322 367.171 833.073 365.543C835.823 363.914 838.001 361.474 839.307 358.559L861.747 300.356" stroke="#3C096C" stroke-width="1.56" stroke-miterlimit="10"/>
<path d="M596.662 356.446H675.704V360.968H596.662V356.446Z" fill="#3C096C"/>
<path d="M601.653 356.575L575.035 296.478L571.914 297.509L597.255 356.446L601.653 356.575Z" stroke="#3C096C" stroke-miterlimit="10"/>
<path d="M680.45 355.248L675.601 355.055L674.788 339.686L682.681 339.493" stroke="#3C096C" stroke-width="1.56" stroke-miterlimit="10"/>
<path d="M817.474 377.87C817.474 377.87 840.377 379.055 843.782 371.094C853.416 348.588 862.533 301 862.533 301C862.533 301 843.705 351.062 839.32 358.559C834.935 366.057 828.268 367.886 821.845 367.577L815.397 367.294L817.474 377.87Z" fill="#3C096C"/>
<path d="M251.053 507.481H164.209L172.85 592.995H244.399L251.053 507.481Z" stroke="#3C096C" stroke-miterlimit="10"/>
<path d="M296.41 591.604C294.643 591.604 244.656 574.445 244.656 574.445L243.367 592.48L296.41 591.604Z" fill="#3C096C"/>
<path d="M246.14 402.205L209.733 432.969C209.733 432.969 210.288 492.589 210.223 496.595" stroke="black" stroke-miterlimit="10"/>
<path d="M218.916 425.2L209.153 360.131L153.853 327.474" stroke="black" stroke-miterlimit="10" stroke-linecap="round"/>
<path d="M186.391 346.694L232.315 259.029L279.464 233.29" stroke="black" stroke-miterlimit="10" stroke-linecap="round"/>
<path d="M228.188 402.682C229.478 404.254 232.844 403.596 232.844 403.596C232.844 403.596 234.262 400.415 233.024 398.856C232.793 398.479 232.484 398.155 232.118 397.907C231.752 397.658 231.337 397.49 230.901 397.414C230.465 397.338 230.018 397.355 229.589 397.465C229.16 397.575 228.759 397.774 228.414 398.051C228.068 398.327 227.786 398.673 227.584 399.067C227.383 399.461 227.268 399.893 227.246 400.335C227.225 400.776 227.298 401.217 227.46 401.629C227.623 402.04 227.871 402.412 228.188 402.721V402.682Z" fill="black"/>
<path d="M233.14 409.716C234.429 408.183 233.14 404.975 233.14 404.975C233.14 404.975 229.735 404.24 228.459 405.774C228.098 406.061 227.807 406.425 227.604 406.839C227.402 407.253 227.293 407.707 227.287 408.168C227.281 408.629 227.378 409.085 227.57 409.504C227.762 409.923 228.044 410.295 228.397 410.592C228.749 410.889 229.163 411.104 229.609 411.222C230.055 411.34 230.522 411.357 230.975 411.273C231.429 411.19 231.858 411.007 232.233 410.737C232.607 410.468 232.917 410.119 233.14 409.716Z" fill="black"/>
<path d="M238.441 405.503C236.622 406.315 233.875 404.215 233.875 404.215C233.875 404.215 234.081 400.749 235.9 399.925C236.277 399.679 236.704 399.517 237.15 399.45C237.596 399.383 238.051 399.414 238.484 399.539C238.917 399.664 239.318 399.881 239.66 400.175C240.001 400.469 240.275 400.834 240.463 401.243C240.651 401.653 240.748 402.098 240.747 402.549C240.747 402.999 240.649 403.444 240.461 403.853C240.272 404.263 239.998 404.627 239.656 404.92C239.314 405.214 238.913 405.43 238.479 405.555L238.441 405.503Z" fill="black"/>
<path d="M251.84 392.324C250.344 393.612 251.195 397.026 251.195 397.026C251.195 397.026 254.457 398.315 255.941 396.936C256.329 396.696 256.66 396.374 256.911 395.992C257.162 395.61 257.326 395.179 257.392 394.727C257.458 394.275 257.424 393.815 257.293 393.377C257.162 392.94 256.937 392.537 256.634 392.195C256.33 391.854 255.956 391.583 255.537 391.402C255.117 391.22 254.663 391.133 254.207 391.145C253.75 391.158 253.301 391.269 252.892 391.473C252.484 391.677 252.124 391.967 251.84 392.324Z" fill="black"/>
<path d="M245.095 397.632C246.707 398.817 249.841 397.297 249.841 397.297C249.841 397.297 250.383 393.844 248.77 392.659C248.453 392.335 248.069 392.084 247.645 391.924C247.22 391.763 246.767 391.695 246.314 391.727C245.861 391.758 245.421 391.887 245.023 392.106C244.625 392.324 244.28 392.626 244.01 392.99C243.741 393.355 243.554 393.774 243.462 394.218C243.371 394.661 243.376 395.12 243.48 395.561C243.583 396.003 243.781 396.416 244.06 396.774C244.338 397.131 244.692 397.424 245.095 397.632Z" fill="black"/>
<path d="M249.609 402.708C248.693 400.943 250.679 398.083 250.679 398.083C250.679 398.083 254.174 398.083 255.09 399.848C255.363 400.211 255.554 400.629 255.65 401.073C255.745 401.517 255.743 401.977 255.643 402.42C255.543 402.863 255.347 403.279 255.07 403.639C254.792 403.999 254.44 404.295 254.037 404.505C253.634 404.715 253.189 404.835 252.735 404.857C252.281 404.879 251.828 404.802 251.406 404.631C250.985 404.459 250.606 404.199 250.295 403.867C249.985 403.535 249.751 403.139 249.609 402.708Z" fill="black"/>
<path d="M239.253 423.77C238.105 422.147 234.649 422.585 234.649 422.585C234.649 422.585 233.037 425.677 234.185 427.313C234.382 427.722 234.666 428.083 235.016 428.371C235.367 428.66 235.776 428.869 236.216 428.983C236.655 429.098 237.114 429.116 237.561 429.036C238.008 428.956 238.433 428.78 238.805 428.52C239.177 428.259 239.488 427.922 239.717 427.529C239.945 427.137 240.085 426.7 240.128 426.248C240.171 425.797 240.114 425.341 239.963 424.913C239.812 424.485 239.57 424.095 239.253 423.77Z" fill="black"/>
<path d="M234.752 416.479C233.385 417.935 234.533 421.22 234.533 421.22C234.533 421.22 237.899 422.147 239.253 420.692C239.608 420.414 239.898 420.064 240.105 419.664C240.311 419.264 240.428 418.824 240.448 418.375C240.468 417.926 240.391 417.477 240.221 417.06C240.051 416.644 239.793 416.269 239.464 415.961C239.136 415.653 238.744 415.42 238.317 415.278C237.89 415.136 237.436 415.088 236.989 415.137C236.541 415.186 236.11 415.332 235.723 415.564C235.337 415.795 235.006 416.107 234.752 416.479Z" fill="black"/>
<path d="M229.168 420.369C231.038 419.661 233.656 421.954 233.656 421.954C233.656 421.954 233.243 425.419 231.386 426.128C230.996 426.347 230.562 426.48 230.116 426.517C229.67 426.554 229.221 426.495 228.799 426.343C228.378 426.191 227.995 425.951 227.675 425.638C227.354 425.325 227.106 424.947 226.945 424.53C226.784 424.112 226.715 423.665 226.742 423.218C226.77 422.772 226.893 422.336 227.104 421.942C227.315 421.547 227.609 421.203 227.965 420.931C228.321 420.66 228.731 420.468 229.168 420.369Z" fill="black"/>
<path d="M201.325 408.698C203.311 408.466 204.562 405.22 204.562 405.22C204.562 405.22 202.602 402.334 200.616 402.566C200.16 402.542 199.705 402.617 199.282 402.787C198.859 402.957 198.479 403.216 198.166 403.548C197.854 403.88 197.618 404.276 197.475 404.708C197.332 405.141 197.285 405.599 197.337 406.051C197.389 406.504 197.54 406.939 197.778 407.328C198.016 407.716 198.336 408.047 198.716 408.299C199.096 408.551 199.526 408.717 199.976 408.786C200.427 408.855 200.887 408.825 201.325 408.698Z" fill="black"/>
<path d="M209.927 408.221C209.295 406.328 205.852 405.773 205.852 405.773C205.852 405.773 203.427 408.286 204.059 410.179C204.132 410.627 204.301 411.053 204.556 411.429C204.81 411.805 205.143 412.121 205.531 412.356C205.92 412.59 206.355 412.737 206.806 412.787C207.257 412.837 207.714 412.789 208.145 412.645C208.576 412.502 208.97 412.266 209.3 411.955C209.631 411.644 209.89 411.265 210.059 410.845C210.229 410.424 210.305 409.971 210.282 409.518C210.259 409.065 210.138 408.623 209.927 408.221Z" fill="black"/>
<path d="M209.114 401.471C208.857 403.442 205.593 404.653 205.593 404.653C205.593 404.653 202.73 402.643 203.014 400.672C203.008 400.225 203.099 399.782 203.279 399.373C203.459 398.964 203.725 398.598 204.06 398.301C204.394 398.004 204.789 397.782 205.216 397.65C205.644 397.519 206.095 397.48 206.539 397.538C206.983 397.596 207.409 397.749 207.788 397.986C208.168 398.222 208.492 398.538 208.739 398.911C208.986 399.284 209.149 399.706 209.218 400.147C209.288 400.589 209.261 401.041 209.14 401.471H209.114Z" fill="black"/>
<path d="M198.552 373.129C200.538 372.897 201.789 369.651 201.789 369.651C201.789 369.651 199.829 366.778 197.843 366.997C197.387 366.973 196.933 367.049 196.51 367.218C196.087 367.388 195.706 367.648 195.393 367.979C195.081 368.311 194.846 368.707 194.702 369.14C194.559 369.572 194.512 370.03 194.564 370.482C194.616 370.935 194.767 371.37 195.005 371.759C195.243 372.147 195.563 372.479 195.943 372.731C196.323 372.983 196.753 373.149 197.204 373.218C197.654 373.287 198.114 373.256 198.552 373.129Z" fill="black"/>
<path d="M207.128 372.653C206.483 370.759 203.04 370.205 203.04 370.205C203.04 370.205 200.628 372.781 201.26 374.611C201.333 375.058 201.503 375.485 201.757 375.861C202.011 376.236 202.344 376.552 202.733 376.787C203.122 377.021 203.556 377.169 204.008 377.219C204.459 377.269 204.916 377.22 205.346 377.077C205.777 376.933 206.171 376.697 206.502 376.386C206.832 376.076 207.091 375.697 207.261 375.276C207.43 374.855 207.506 374.403 207.483 373.95C207.46 373.497 207.339 373.054 207.128 372.653Z" fill="black"/>
<path d="M206.341 365.915C206.083 367.886 202.808 369.097 202.808 369.097C202.808 369.097 199.958 367.087 200.229 365.116C200.222 364.669 200.313 364.226 200.493 363.817C200.673 363.408 200.94 363.042 201.274 362.745C201.608 362.448 202.003 362.226 202.431 362.094C202.858 361.963 203.309 361.925 203.753 361.982C204.197 362.04 204.623 362.193 205.003 362.43C205.382 362.667 205.706 362.982 205.953 363.355C206.2 363.728 206.363 364.15 206.432 364.592C206.502 365.033 206.475 365.485 206.354 365.915H206.341Z" fill="black"/>
<path d="M196.643 434.875C198.5 435.61 201.144 433.329 201.144 433.329C201.144 433.329 200.77 429.864 198.913 429.143C198.525 428.917 198.092 428.777 197.645 428.734C197.198 428.691 196.746 428.744 196.321 428.891C195.897 429.038 195.509 429.275 195.185 429.586C194.86 429.896 194.607 430.273 194.441 430.691C194.276 431.108 194.203 431.556 194.227 432.004C194.251 432.453 194.372 432.89 194.581 433.288C194.79 433.685 195.083 434.033 195.439 434.307C195.795 434.581 196.205 434.775 196.643 434.875Z" fill="black"/>
<path d="M204.433 438.482C204.768 436.524 201.995 434.411 201.995 434.411C201.995 434.411 198.668 435.494 198.346 437.452C198.206 437.878 198.161 438.329 198.212 438.774C198.263 439.219 198.41 439.648 198.642 440.032C198.874 440.416 199.186 440.744 199.557 440.997C199.928 441.249 200.348 441.418 200.791 441.493C201.233 441.568 201.687 441.547 202.12 441.431C202.554 441.315 202.957 441.107 203.302 440.821C203.648 440.535 203.928 440.178 204.123 439.775C204.318 439.371 204.424 438.93 204.433 438.482Z" fill="black"/>
<path d="M206.935 432.17C205.774 433.793 202.318 433.317 202.318 433.317C202.318 433.317 200.745 430.199 201.905 428.576C202.106 428.168 202.393 427.809 202.747 427.524C203.101 427.238 203.512 427.033 203.953 426.922C204.394 426.812 204.854 426.798 205.301 426.883C205.747 426.967 206.17 427.148 206.54 427.412C206.91 427.677 207.218 428.018 207.442 428.413C207.667 428.808 207.802 429.247 207.84 429.7C207.877 430.153 207.816 430.608 207.659 431.034C207.503 431.461 207.256 431.848 206.935 432.17Z" fill="black"/>
<path d="M221.288 462.534C219.315 462.83 218.193 466.128 218.193 466.128C218.193 466.128 220.257 468.937 222.23 468.627C222.679 468.626 223.122 468.527 223.53 468.339C223.937 468.15 224.299 467.876 224.591 467.535C224.883 467.194 225.098 466.794 225.221 466.362C225.343 465.931 225.371 465.478 225.303 465.034C225.234 464.591 225.071 464.168 224.824 463.793C224.576 463.419 224.251 463.102 223.87 462.864C223.488 462.627 223.061 462.475 222.615 462.418C222.17 462.361 221.717 462.4 221.288 462.534Z" fill="black"/>
<path d="M212.751 463.281C213.447 465.149 216.916 465.574 216.916 465.574C216.916 465.574 219.238 462.998 218.528 461.104C218.433 460.666 218.244 460.254 217.975 459.896C217.706 459.538 217.363 459.242 216.969 459.028C216.576 458.814 216.14 458.687 215.693 458.657C215.246 458.626 214.797 458.692 214.377 458.85C213.958 459.008 213.577 459.254 213.262 459.573C212.946 459.891 212.703 460.273 212.549 460.694C212.394 461.114 212.332 461.563 212.367 462.009C212.402 462.456 212.533 462.89 212.751 463.281Z" fill="black"/>
<path d="M213.796 469.993C213.989 468.009 217.213 466.682 217.213 466.682C217.213 466.682 220.141 468.589 219.947 470.547C219.969 470.993 219.894 471.439 219.728 471.854C219.562 472.268 219.309 472.643 218.985 472.951C218.662 473.26 218.276 473.495 217.853 473.642C217.431 473.788 216.982 473.842 216.537 473.8C216.091 473.758 215.66 473.621 215.273 473.398C214.885 473.176 214.55 472.872 214.29 472.509C214.03 472.145 213.852 471.73 213.766 471.292C213.681 470.853 213.691 470.401 213.796 469.967V469.993Z" fill="black"/>
<path d="M222.255 371.468C220.721 372.756 221.481 376.144 221.481 376.144C221.481 376.144 224.705 377.432 226.227 376.144C226.612 375.91 226.941 375.596 227.193 375.224C227.445 374.851 227.612 374.428 227.685 373.984C227.758 373.541 227.734 373.087 227.614 372.653C227.495 372.22 227.283 371.817 226.993 371.473C226.703 371.129 226.343 370.852 225.935 370.66C225.528 370.469 225.084 370.367 224.634 370.363C224.184 370.359 223.739 370.452 223.328 370.636C222.917 370.82 222.552 371.09 222.255 371.429V371.468Z" fill="black"/>
<path d="M215.369 376.595C216.942 377.819 220.128 376.376 220.128 376.376C220.128 376.376 220.747 372.949 219.173 371.725C218.861 371.411 218.486 371.167 218.073 371.008C217.66 370.849 217.217 370.78 216.775 370.804C216.333 370.828 215.901 370.946 215.508 371.149C215.114 371.353 214.769 371.637 214.494 371.983C214.218 372.33 214.02 372.731 213.911 373.16C213.802 373.588 213.785 374.035 213.862 374.471C213.938 374.907 214.106 375.321 214.355 375.687C214.604 376.053 214.927 376.363 215.304 376.595H215.369Z" fill="black"/>
<path d="M219.754 381.786C218.877 379.996 220.94 377.187 220.94 377.187C220.94 377.187 224.422 377.29 225.299 379.081C225.554 379.45 225.727 379.87 225.805 380.312C225.883 380.754 225.864 381.208 225.751 381.642C225.637 382.077 225.43 382.481 225.146 382.829C224.861 383.176 224.504 383.458 224.101 383.655C223.697 383.852 223.255 383.959 222.806 383.97C222.357 383.981 221.911 383.895 221.498 383.717C221.085 383.54 220.715 383.275 220.414 382.942C220.113 382.609 219.888 382.215 219.754 381.786Z" fill="black"/>
<path d="M287.859 220.794C286.337 222.082 287.085 225.483 287.085 225.483C287.085 225.483 290.322 226.771 291.844 225.483C292.234 225.25 292.568 224.935 292.823 224.561C293.079 224.186 293.251 223.761 293.326 223.314C293.4 222.866 293.377 222.408 293.257 221.971C293.137 221.534 292.924 221.127 292.632 220.78C292.34 220.434 291.975 220.154 291.564 219.962C291.153 219.77 290.705 219.669 290.251 219.666C289.797 219.664 289.349 219.76 288.936 219.948C288.522 220.136 288.155 220.411 287.859 220.755V220.794Z" fill="black"/>
<path d="M280.986 225.921C282.559 227.209 285.731 225.715 285.731 225.715C285.731 225.715 286.363 222.288 284.79 221.064C284.477 220.762 284.104 220.529 283.696 220.38C283.287 220.231 282.852 220.168 282.418 220.197C281.984 220.225 281.561 220.344 281.176 220.545C280.79 220.747 280.451 221.026 280.18 221.366C279.91 221.706 279.713 222.099 279.603 222.519C279.493 222.94 279.473 223.378 279.542 223.807C279.612 224.236 279.77 224.645 280.008 225.009C280.245 225.373 280.556 225.684 280.921 225.921H280.986Z" fill="black"/>
<path d="M285.357 231.125C284.48 229.335 286.557 226.526 286.557 226.526C286.557 226.526 290.039 226.629 290.916 228.42C291.179 228.79 291.359 229.214 291.442 229.66C291.525 230.107 291.51 230.567 291.398 231.007C291.285 231.448 291.078 231.858 290.791 232.21C290.504 232.563 290.143 232.849 289.734 233.048C289.325 233.247 288.878 233.354 288.423 233.363C287.968 233.372 287.517 233.282 287.1 233.099C286.684 232.916 286.312 232.645 286.011 232.304C285.71 231.963 285.487 231.561 285.357 231.125Z" fill="black"/>
<path d="M278.045 248.336C276.988 246.636 273.519 246.894 273.519 246.894C273.519 246.894 271.752 249.895 272.796 251.596C272.969 252.017 273.232 252.395 273.566 252.705C273.9 253.014 274.298 253.247 274.732 253.387C275.165 253.527 275.624 253.571 276.077 253.516C276.529 253.461 276.963 253.307 277.35 253.067C277.737 252.827 278.067 252.505 278.317 252.124C278.567 251.744 278.73 251.313 278.797 250.863C278.863 250.413 278.83 249.953 278.7 249.517C278.57 249.08 278.347 248.678 278.045 248.336Z" fill="black"/>
<path d="M273.944 240.8C272.513 242.178 273.48 245.528 273.48 245.528C273.48 245.528 276.781 246.636 278.226 245.257C278.601 245 278.915 244.665 279.147 244.274C279.38 243.884 279.524 243.447 279.571 242.996C279.617 242.544 279.564 242.088 279.417 241.658C279.269 241.229 279.029 240.836 278.714 240.508C278.399 240.181 278.017 239.925 277.594 239.76C277.17 239.595 276.716 239.523 276.262 239.551C275.808 239.579 275.365 239.705 274.965 239.921C274.565 240.136 274.217 240.436 273.944 240.8Z" fill="black"/>
<path d="M268.179 244.381C270.075 243.776 272.564 246.211 272.564 246.211C272.564 246.211 271.971 249.65 270.062 250.256C269.66 250.453 269.219 250.562 268.771 250.574C268.323 250.586 267.878 250.501 267.465 250.326C267.052 250.151 266.682 249.889 266.38 249.558C266.078 249.227 265.851 248.835 265.714 248.408C265.577 247.982 265.534 247.53 265.588 247.086C265.641 246.641 265.79 246.213 266.024 245.831C266.258 245.449 266.572 245.122 266.944 244.871C267.315 244.621 267.737 244.454 268.179 244.381Z" fill="black"/>
<path d="M245.675 238.713C246.591 240.478 250.073 240.504 250.073 240.504C250.073 240.504 252.085 237.644 251.156 235.879C251.012 235.454 250.777 235.065 250.468 234.739C250.16 234.413 249.784 234.158 249.367 233.99C248.95 233.823 248.502 233.747 248.053 233.768C247.605 233.79 247.166 233.907 246.767 234.114C246.368 234.32 246.018 234.61 245.741 234.964C245.465 235.318 245.268 235.727 245.165 236.163C245.061 236.6 245.053 237.054 245.141 237.494C245.229 237.934 245.411 238.35 245.675 238.713Z" fill="black"/>
<path d="M249.157 246.546C250.705 245.257 250.009 241.869 250.009 241.869C250.009 241.869 246.797 240.504 245.25 241.766C244.854 241.988 244.511 242.294 244.245 242.662C243.979 243.03 243.797 243.451 243.712 243.897C243.626 244.342 243.639 244.802 243.749 245.242C243.859 245.682 244.064 246.093 244.35 246.446C244.635 246.798 244.995 247.085 245.402 247.284C245.81 247.484 246.257 247.593 246.711 247.602C247.165 247.612 247.616 247.522 248.032 247.34C248.448 247.157 248.818 246.886 249.119 246.546H249.157Z" fill="black"/>
<path d="M255.206 243.428C253.258 243.892 250.976 241.251 250.976 241.251C250.976 241.251 251.84 237.876 253.787 237.386C254.204 237.221 254.651 237.147 255.099 237.17C255.547 237.192 255.984 237.311 256.382 237.518C256.78 237.725 257.128 238.015 257.403 238.369C257.679 238.722 257.874 239.131 257.977 239.567C258.08 240.003 258.088 240.456 258 240.895C257.912 241.334 257.73 241.749 257.467 242.112C257.204 242.475 256.866 242.777 256.476 242.997C256.085 243.217 255.652 243.351 255.206 243.389V243.428Z" fill="black"/>
<path d="M220.141 255.679C221.701 256.967 224.9 255.525 224.9 255.525C224.9 255.525 225.57 252.111 224.009 250.861C223.706 250.523 223.333 250.254 222.915 250.074C222.497 249.895 222.045 249.808 221.59 249.82C221.135 249.833 220.689 249.944 220.281 250.146C219.874 250.348 219.515 250.637 219.231 250.991C218.946 251.345 218.742 251.758 218.633 252.199C218.524 252.64 218.512 253.1 218.599 253.546C218.685 253.992 218.868 254.414 219.134 254.782C219.401 255.151 219.744 255.457 220.141 255.679Z" fill="black"/>
<path d="M226.524 261.425C227.414 259.634 225.389 256.813 225.389 256.813C225.389 256.813 221.908 256.813 221.005 258.642C220.736 259.009 220.55 259.43 220.46 259.875C220.371 260.321 220.379 260.781 220.486 261.223C220.592 261.665 220.793 262.079 221.076 262.435C221.358 262.791 221.715 263.082 222.121 263.287C222.527 263.491 222.973 263.605 223.428 263.621C223.883 263.636 224.335 263.552 224.754 263.375C225.173 263.198 225.549 262.932 225.854 262.595C226.16 262.258 226.389 261.859 226.524 261.425Z" fill="black"/>
<path d="M230.767 256.117C229.181 257.328 226.021 255.847 226.021 255.847C226.021 255.847 225.441 252.42 227.027 251.209C227.34 250.889 227.719 250.639 228.138 250.478C228.556 250.317 229.004 250.248 229.451 250.276C229.899 250.303 230.335 250.427 230.731 250.638C231.126 250.849 231.471 251.143 231.743 251.499C232.015 251.856 232.206 252.266 232.305 252.703C232.403 253.14 232.406 253.593 232.313 254.031C232.221 254.47 232.035 254.883 231.768 255.243C231.501 255.603 231.16 255.901 230.767 256.117Z" fill="black"/>
<path d="M200.061 294.649C201.609 295.937 204.807 294.495 204.807 294.495C204.807 294.495 205.478 291.081 203.917 289.831C203.611 289.507 203.238 289.253 202.825 289.086C202.412 288.918 201.968 288.84 201.522 288.858C201.077 288.877 200.64 288.99 200.242 289.191C199.844 289.391 199.494 289.675 199.215 290.022C198.936 290.37 198.735 290.773 198.625 291.205C198.515 291.636 198.499 292.087 198.578 292.525C198.657 292.963 198.829 293.38 199.083 293.746C199.336 294.113 199.666 294.42 200.048 294.649H200.061Z" fill="black"/>
<path d="M206.432 300.394C207.335 298.604 205.297 295.783 205.297 295.783C205.297 295.783 201.815 295.783 200.912 297.612C200.643 297.979 200.457 298.399 200.368 298.845C200.278 299.291 200.287 299.75 200.393 300.192C200.5 300.634 200.701 301.048 200.983 301.405C201.265 301.761 201.622 302.052 202.028 302.256C202.435 302.461 202.881 302.575 203.336 302.59C203.79 302.606 204.243 302.522 204.662 302.344C205.081 302.167 205.456 301.901 205.762 301.564C206.068 301.228 206.296 300.828 206.432 300.394Z" fill="black"/>
<path d="M210.688 295.061C209.089 296.272 205.942 294.791 205.942 294.791C205.942 294.791 205.348 291.364 206.948 290.153C207.261 289.832 207.64 289.583 208.058 289.422C208.476 289.261 208.925 289.192 209.372 289.22C209.82 289.247 210.256 289.371 210.652 289.582C211.047 289.793 211.392 290.087 211.664 290.443C211.935 290.799 212.127 291.21 212.225 291.647C212.324 292.084 212.327 292.537 212.234 292.975C212.141 293.413 211.955 293.827 211.688 294.186C211.422 294.546 211.08 294.845 210.688 295.061Z" fill="black"/>
<path d="M249.273 264.993C247.984 263.473 244.592 264.208 244.592 264.208C244.592 264.208 243.302 267.428 244.592 268.961C244.828 269.341 245.143 269.665 245.515 269.912C245.888 270.16 246.309 270.324 246.751 270.394C247.192 270.465 247.644 270.439 248.075 270.32C248.506 270.201 248.907 269.991 249.249 269.704C249.592 269.417 249.868 269.059 250.06 268.656C250.253 268.252 250.356 267.813 250.363 267.366C250.371 266.919 250.281 266.476 250.102 266.067C249.923 265.657 249.658 265.291 249.325 264.993H249.273Z" fill="black"/>
<path d="M244.18 258.101C242.89 259.673 244.36 262.855 244.36 262.855C244.36 262.855 247.791 263.499 249.029 261.927C249.339 261.617 249.58 261.244 249.736 260.835C249.892 260.425 249.96 259.987 249.936 259.549C249.911 259.111 249.794 258.683 249.593 258.294C249.391 257.904 249.11 257.561 248.766 257.288C248.423 257.014 248.026 256.816 247.601 256.706C247.176 256.597 246.732 256.578 246.299 256.651C245.867 256.724 245.454 256.887 245.089 257.131C244.723 257.374 244.414 257.691 244.18 258.063V258.101Z" fill="black"/>
<path d="M238.956 262.456C240.749 261.592 243.548 263.666 243.548 263.666C243.548 263.666 243.444 267.145 241.639 268.021C241.267 268.282 240.842 268.459 240.395 268.54C239.947 268.621 239.487 268.604 239.047 268.49C238.607 268.375 238.197 268.166 237.845 267.878C237.494 267.589 237.21 267.228 237.012 266.818C236.815 266.409 236.709 265.961 236.703 265.507C236.696 265.053 236.788 264.602 236.973 264.187C237.158 263.772 237.431 263.402 237.774 263.103C238.116 262.804 238.52 262.583 238.956 262.456Z" fill="black"/>
<path d="M214.814 324.382C213.525 322.849 210.133 323.583 210.133 323.583C210.133 323.583 208.843 326.804 210.133 328.337C210.362 328.73 210.675 329.068 211.049 329.328C211.423 329.588 211.849 329.763 212.298 329.842C212.747 329.921 213.207 329.901 213.648 329.783C214.088 329.666 214.497 329.454 214.847 329.162C215.197 328.871 215.479 328.507 215.673 328.095C215.868 327.684 215.97 327.235 215.973 326.78C215.976 326.324 215.88 325.874 215.691 325.46C215.502 325.046 215.225 324.678 214.879 324.382H214.814Z" fill="black"/>
<path d="M209.707 317.49C208.482 319.048 209.901 322.231 209.901 322.231C209.901 322.231 213.331 322.875 214.569 321.303C214.891 320.994 215.142 320.619 215.307 320.205C215.471 319.79 215.546 319.346 215.525 318.9C215.503 318.455 215.387 318.02 215.184 317.623C214.981 317.226 214.695 316.877 214.345 316.599C213.996 316.322 213.592 316.122 213.159 316.013C212.726 315.904 212.275 315.889 211.836 315.969C211.397 316.048 210.98 316.22 210.613 316.474C210.246 316.727 209.937 317.056 209.707 317.438V317.49Z" fill="black"/>
<path d="M204.497 321.831C206.29 320.968 209.088 323.042 209.088 323.042C209.088 323.042 208.972 326.521 207.18 327.397C206.808 327.658 206.383 327.835 205.935 327.916C205.488 327.997 205.028 327.98 204.588 327.865C204.147 327.751 203.737 327.542 203.386 327.253C203.035 326.965 202.751 326.603 202.553 326.194C202.356 325.784 202.25 325.337 202.244 324.883C202.237 324.428 202.329 323.978 202.514 323.563C202.699 323.148 202.972 322.778 203.315 322.479C203.657 322.18 204.061 321.959 204.497 321.831Z" fill="black"/>
<path d="M232.521 283.467C230.574 283.016 228.304 285.657 228.304 285.657C228.304 285.657 229.194 289.032 231.141 289.522C231.559 289.682 232.006 289.751 232.452 289.724C232.899 289.697 233.334 289.574 233.729 289.365C234.124 289.155 234.469 288.863 234.741 288.508C235.013 288.153 235.205 287.744 235.305 287.309C235.405 286.873 235.41 286.421 235.32 285.984C235.229 285.546 235.046 285.133 234.782 284.772C234.518 284.412 234.18 284.112 233.79 283.893C233.4 283.675 232.967 283.542 232.521 283.505V283.467Z" fill="black"/>
<path d="M224.28 281.109C224.28 283.106 227.311 284.768 227.311 284.768C227.311 284.768 230.419 283.209 230.457 281.213C230.529 280.771 230.504 280.32 230.385 279.889C230.266 279.458 230.056 279.058 229.769 278.715C229.482 278.373 229.124 278.096 228.72 277.903C228.316 277.711 227.876 277.608 227.429 277.6C226.981 277.593 226.537 277.681 226.127 277.86C225.717 278.039 225.351 278.304 225.052 278.637C224.753 278.97 224.53 279.362 224.397 279.789C224.264 280.216 224.224 280.666 224.28 281.109Z" fill="black"/>
<path d="M222.758 287.731C223.661 285.953 227.143 285.914 227.143 285.914C227.143 285.914 229.168 288.749 228.265 290.526C228.122 290.95 227.889 291.338 227.582 291.664C227.276 291.99 226.902 292.246 226.488 292.415C226.073 292.584 225.627 292.662 225.179 292.643C224.732 292.625 224.294 292.51 223.895 292.308C223.496 292.105 223.145 291.819 222.866 291.469C222.587 291.119 222.387 290.713 222.28 290.279C222.172 289.845 222.159 289.392 222.241 288.953C222.324 288.513 222.5 288.097 222.758 287.731Z" fill="black"/>
<path d="M143.382 325.979C145.226 326.727 147.882 324.459 147.882 324.459C147.882 324.459 147.547 320.994 145.69 320.247C145.301 320.012 144.866 319.864 144.415 319.814C143.963 319.763 143.506 319.812 143.075 319.955C142.645 320.099 142.25 320.334 141.919 320.645C141.589 320.957 141.329 321.336 141.16 321.757C140.99 322.178 140.915 322.63 140.938 323.084C140.961 323.537 141.082 323.979 141.293 324.381C141.505 324.783 141.801 325.134 142.161 325.41C142.522 325.686 142.938 325.88 143.382 325.979Z" fill="black"/>
<path d="M151.132 329.651C151.48 327.68 148.721 325.554 148.721 325.554C148.721 325.554 145.393 326.598 145.045 328.569C144.893 328.997 144.836 329.453 144.878 329.906C144.92 330.358 145.061 330.797 145.29 331.189C145.518 331.582 145.83 331.921 146.203 332.181C146.576 332.442 147.001 332.618 147.449 332.697C147.897 332.777 148.357 332.758 148.797 332.642C149.237 332.526 149.647 332.316 149.997 332.026C150.348 331.736 150.631 331.374 150.827 330.963C151.023 330.553 151.127 330.105 151.132 329.651Z" fill="black"/>
<path d="M153.686 323.403C152.512 325.013 149.056 324.498 149.056 324.498C149.056 324.498 147.508 321.38 148.682 319.77C148.886 319.365 149.177 319.009 149.532 318.727C149.888 318.444 150.301 318.243 150.742 318.136C151.184 318.029 151.643 318.02 152.089 318.108C152.535 318.196 152.956 318.379 153.323 318.646C153.691 318.913 153.995 319.256 154.217 319.653C154.438 320.049 154.571 320.488 154.605 320.941C154.64 321.393 154.575 321.848 154.417 322.273C154.258 322.698 154.008 323.083 153.686 323.403Z" fill="black"/>
<path d="M160.624 348.717C162.546 348.189 163.268 344.775 163.268 344.775C163.268 344.775 160.882 342.198 158.96 342.778C158.515 342.834 158.087 342.985 157.706 343.221C157.324 343.457 156.998 343.773 156.75 344.146C156.501 344.519 156.337 344.942 156.266 345.385C156.196 345.827 156.223 346.28 156.344 346.711C156.465 347.143 156.677 347.544 156.967 347.886C157.257 348.228 157.617 348.503 158.024 348.694C158.43 348.884 158.873 348.985 159.321 348.989C159.77 348.993 160.214 348.9 160.624 348.717Z" fill="black"/>
<path d="M169.006 346.913C168.091 345.136 164.596 345.136 164.596 345.136C164.596 345.136 162.597 347.983 163.525 349.76C163.673 350.182 163.91 350.568 164.22 350.89C164.53 351.213 164.905 351.466 165.321 351.63C165.737 351.795 166.184 351.869 166.631 351.846C167.078 351.823 167.515 351.705 167.912 351.498C168.309 351.292 168.657 351.003 168.932 350.65C169.208 350.298 169.404 349.89 169.508 349.456C169.612 349.021 169.62 348.569 169.534 348.13C169.447 347.691 169.268 347.276 169.006 346.913Z" fill="black"/>
<path d="M167.188 340.369C167.188 342.353 164.196 344.053 164.196 344.053C164.196 344.053 161.063 342.52 161.011 340.524C160.924 340.077 160.935 339.616 161.044 339.174C161.153 338.732 161.357 338.318 161.642 337.963C161.928 337.608 162.287 337.32 162.696 337.117C163.104 336.915 163.552 336.805 164.008 336.793C164.464 336.782 164.916 336.87 165.335 337.051C165.753 337.233 166.127 337.503 166.429 337.844C166.732 338.184 166.957 338.586 167.088 339.023C167.219 339.459 167.253 339.918 167.188 340.369Z" fill="black"/>
<path d="M174.255 326.662C174.371 328.646 177.557 330.089 177.557 330.089C177.557 330.089 180.536 328.285 180.42 326.301C180.459 325.855 180.402 325.406 180.252 324.984C180.102 324.562 179.862 324.177 179.55 323.856C179.238 323.534 178.859 323.284 178.442 323.122C178.024 322.96 177.576 322.889 177.128 322.915C176.681 322.941 176.244 323.064 175.848 323.273C175.452 323.483 175.106 323.776 174.833 324.132C174.561 324.487 174.368 324.897 174.268 325.334C174.169 325.77 174.164 326.224 174.255 326.662Z" fill="black"/>
<path d="M174.255 335.229C176.177 334.714 176.925 331.364 176.925 331.364C176.925 331.364 174.552 328.788 172.631 329.342C172.186 329.396 171.758 329.544 171.376 329.778C170.993 330.012 170.666 330.326 170.416 330.697C170.166 331.068 169.999 331.489 169.926 331.931C169.854 332.373 169.877 332.825 169.995 333.257C170.113 333.689 170.322 334.09 170.609 334.434C170.897 334.777 171.254 335.055 171.659 335.249C172.063 335.442 172.504 335.546 172.952 335.554C173.4 335.561 173.845 335.473 174.255 335.293V335.229Z" fill="black"/>
<path d="M181.052 334.842C179.079 334.468 178.06 331.132 178.06 331.132C178.06 331.132 180.226 328.401 182.187 328.775C182.633 328.794 183.071 328.909 183.469 329.111C183.867 329.314 184.218 329.6 184.496 329.95C184.774 330.299 184.974 330.704 185.081 331.138C185.189 331.571 185.202 332.023 185.12 332.462C185.038 332.901 184.863 333.317 184.605 333.682C184.348 334.048 184.015 334.354 183.63 334.579C183.244 334.805 182.814 334.945 182.369 334.991C181.925 335.036 181.475 334.985 181.052 334.842Z" fill="black"/>
<path d="M258.017 496.595H157.49C157.142 496.595 156.799 496.672 156.485 496.822C156.171 496.972 155.895 497.191 155.677 497.461C155.459 497.732 155.305 498.049 155.226 498.387C155.147 498.725 155.145 499.077 155.221 499.416L156.51 505.652C156.625 506.171 156.914 506.635 157.329 506.968C157.744 507.301 158.261 507.482 158.793 507.481H255.606C256.079 507.482 256.542 507.338 256.932 507.069C257.322 506.799 257.619 506.417 257.785 505.974L260.132 499.739C260.264 499.392 260.311 499.018 260.269 498.65C260.227 498.281 260.097 497.928 259.889 497.62C259.682 497.312 259.404 497.058 259.078 496.88C258.753 496.702 258.389 496.604 258.017 496.595V496.595Z" stroke="#3C096C" stroke-miterlimit="10"/>
<path d="M250.034 517.298C248.925 517.298 164.209 507.481 164.209 507.481H251.053L250.034 517.298Z" fill="#3C096C"/>
<path d="M510.837 333.322H487.327C487.067 333.323 486.81 333.378 486.573 333.484C486.335 333.59 486.123 333.744 485.949 333.937C485.775 334.13 485.644 334.357 485.564 334.604C485.483 334.851 485.456 335.112 485.483 335.371L487.804 358.327C487.862 358.916 488.137 359.462 488.575 359.86C489.014 360.258 489.585 360.478 490.177 360.479H508.529C509.131 360.48 509.712 360.254 510.155 359.846C510.597 359.437 510.869 358.876 510.914 358.276L512.707 335.319C512.727 335.063 512.693 334.805 512.607 334.563C512.522 334.32 512.387 334.098 512.211 333.91C512.036 333.722 511.823 333.573 511.586 333.472C511.349 333.371 511.094 333.32 510.837 333.322V333.322Z" stroke="#3C096C" stroke-miterlimit="10"/>
<path d="M512.397 339.235H485.87L512.023 343.976L512.397 339.235Z" fill="#3C096C"/>
<path d="M488.487 327.267C488.505 328.1 488.741 328.914 489.17 329.629C489.6 330.343 490.209 330.932 490.938 331.338C493.427 332.678 496.24 333.298 499.062 333.129C503.95 333.129 506.8 331.931 508.167 330.153C508.909 329.138 509.23 327.877 509.064 326.632C508.898 325.387 508.258 324.253 507.278 323.467C505.717 322.179 503.06 321.393 499.062 321.393C494.523 321.393 491.531 322.424 489.919 323.969C489.467 324.392 489.107 324.903 488.861 325.47C488.615 326.038 488.488 326.649 488.487 327.267V327.267Z" stroke="#3C096C" stroke-miterlimit="10"/>
<path d="M489.687 312.968C489.437 313.489 489.328 314.067 489.371 314.643C489.414 315.219 489.608 315.774 489.932 316.253C491.06 317.856 492.609 319.117 494.407 319.899C497.438 321.432 499.566 321.574 500.984 320.891C501.759 320.492 502.351 319.811 502.637 318.988C502.923 318.165 502.88 317.265 502.519 316.472C501.502 314.73 499.938 313.371 498.07 312.607C495.271 311.19 493.092 310.894 491.621 311.319C491.202 311.446 490.814 311.657 490.482 311.941C490.149 312.225 489.878 312.575 489.687 312.968V312.968Z" stroke="#3C096C" stroke-miterlimit="10"/>
<path d="M494.51 306.398C494.318 306.355 494.118 306.363 493.93 306.422C493.742 306.481 493.573 306.588 493.44 306.733C492.994 307.22 492.695 307.822 492.576 308.472C492.434 308.835 492.377 309.225 492.408 309.613C492.44 310.002 492.559 310.378 492.757 310.713C492.908 310.906 493.123 311.038 493.363 311.087C493.529 311.132 493.703 311.137 493.871 311.101C494.039 311.065 494.197 310.989 494.33 310.881C494.828 310.418 495.155 309.801 495.258 309.129C495.511 308.407 495.484 307.616 495.181 306.913C495.109 306.787 495.013 306.677 494.898 306.588C494.782 306.5 494.651 306.435 494.51 306.398Z" fill="#3C096C"/>
<path d="M549.217 360.479L511.147 355.248V360.968L549.217 360.479Z" fill="#3C096C"/>
<path d="M1000.8 370.54C1127.04 274.746 1044.18 -19.9422 814.224 15.7939C584.269 51.53 306.211 567.617 0.580094 0.334915" stroke="#3C096C" stroke-miterlimit="10"/>
</g>
<defs>
<clipPath id="clip0_12:323">
<rect width="1064" height="594" fill="white" transform="matrix(-1 0 0 1 1064 0)"/>
</clipPath>
</defs>
</svg>
