<svg width="88" height="25" viewBox="0 0 88 25" fill="none" xmlns="http://www.w3.org/2000/svg">
<path d="M12.144 1.272V3.048H7.584V18H5.4V3.048H0.816V1.272H12.144ZM17.0164 6.984C17.4004 6.232 17.9444 5.648 18.6484 5.232C19.3684 4.816 20.2404 4.608 21.2644 4.608V6.864H20.6884C18.2404 6.864 17.0164 8.192 17.0164 10.848V18H14.8324V4.848H17.0164V6.984ZM22.9695 11.376C22.9695 10.032 23.2415 8.856 23.7855 7.848C24.3295 6.824 25.0735 6.032 26.0175 5.472C26.9775 4.912 28.0415 4.632 29.2095 4.632C30.3615 4.632 31.3615 4.88 32.2095 5.376C33.0575 5.872 33.6895 6.496 34.1055 7.248V4.848H36.3135V18H34.1055V15.552C33.6735 16.32 33.0255 16.96 32.1615 17.472C31.3135 17.968 30.3215 18.216 29.1855 18.216C28.0175 18.216 26.9615 17.928 26.0175 17.352C25.0735 16.776 24.3295 15.968 23.7855 14.928C23.2415 13.888 22.9695 12.704 22.9695 11.376ZM34.1055 11.4C34.1055 10.408 33.9055 9.544 33.5055 8.808C33.1055 8.072 32.5615 7.512 31.8735 7.128C31.2015 6.728 30.4575 6.528 29.6415 6.528C28.8255 6.528 28.0815 6.72 27.4095 7.104C26.7375 7.488 26.2015 8.048 25.8015 8.784C25.4015 9.52 25.2015 10.384 25.2015 11.376C25.2015 12.384 25.4015 13.264 25.8015 14.016C26.2015 14.752 26.7375 15.32 27.4095 15.72C28.0815 16.104 28.8255 16.296 29.6415 16.296C30.4575 16.296 31.2015 16.104 31.8735 15.72C32.5615 15.32 33.1055 14.752 33.5055 14.016C33.9055 13.264 34.1055 12.392 34.1055 11.4ZM46.4123 4.608C48.0123 4.608 49.3083 5.096 50.3003 6.072C51.2923 7.032 51.7883 8.424 51.7883 10.248V18H49.6283V10.56C49.6283 9.248 49.3003 8.248 48.6443 7.56C47.9883 6.856 47.0923 6.504 45.9563 6.504C44.8043 6.504 43.8843 6.864 43.1963 7.584C42.5243 8.304 42.1883 9.352 42.1883 10.728V18H40.0043V4.848H42.1883V6.72C42.6203 6.048 43.2043 5.528 43.9403 5.16C44.6923 4.792 45.5163 4.608 46.4123 4.608Z" fill="white"/>
<path d="M54.5398 11.376C54.5398 10.032 54.8118 8.856 55.3558 7.848C55.8998 6.824 56.6438 6.032 57.5878 5.472C58.5478 4.912 59.6198 4.632 60.8038 4.632C61.9398 4.632 62.9318 4.888 63.7798 5.4C64.6438 5.896 65.2758 6.512 65.6758 7.248V4.848H67.8838V24.24H65.6758V15.576C65.2598 16.312 64.6198 16.936 63.7558 17.448C62.8918 17.96 61.8838 18.216 60.7318 18.216C59.5798 18.216 58.5318 17.928 57.5878 17.352C56.6438 16.776 55.8998 15.968 55.3558 14.928C54.8118 13.888 54.5398 12.704 54.5398 11.376ZM65.6758 11.4C65.6758 10.408 65.4758 9.544 65.0758 8.808C64.6758 8.072 64.1318 7.512 63.4438 7.128C62.7718 6.728 62.0278 6.528 61.2118 6.528C60.3958 6.528 59.6518 6.72 58.9798 7.104C58.3078 7.488 57.7718 8.048 57.3718 8.784C56.9718 9.52 56.7718 10.384 56.7718 11.376C56.7718 12.384 56.9718 13.264 57.3718 14.016C57.7718 14.752 58.3078 15.32 58.9798 15.72C59.6518 16.104 60.3958 16.296 61.2118 16.296C62.0278 16.296 62.7718 16.104 63.4438 15.72C64.1318 15.32 64.6758 14.752 65.0758 14.016C65.4758 13.264 65.6758 12.392 65.6758 11.4ZM82.9026 4.848L74.9826 24.192H72.7266L75.3186 17.856L70.0146 4.848H72.4386L76.5666 15.504L80.6466 4.848H82.9026ZM87.282 0.24V18H85.098V0.24H87.282Z" fill="#F77000"/>
</svg>
